G04*
G04 #@! TF.GenerationSoftware,Altium Limited,Altium Designer,19.0.4 (130)*
G04*
G04 Layer_Color=8421504*
%FSTAX44Y44*%
%MOMM*%
G71*
G01*
G75*
%ADD10C,0.2540*%
%ADD15R,0.9300X0.9800*%
%ADD16R,0.9800X0.9300*%
%ADD17R,1.2600X3.6100*%
%ADD18R,3.6100X1.2600*%
%ADD19R,2.0000X2.0000*%
%ADD20R,2.7430X2.1590*%
%ADD21R,8.4000X10.6500*%
%ADD22R,3.8000X1.0500*%
%ADD23R,1.4067X3.4992*%
%ADD24R,3.9200X3.4240*%
%ADD25R,3.4992X1.4067*%
G36*
X00839095Y00101272D02*
X00839095Y00091725D01*
X00838095Y00090725D01*
X00835313D01*
X00834313Y00089725D01*
Y00079827D01*
X00835313Y00078827D01*
X00838095Y00078827D01*
X00839095Y00077827D01*
Y0006828D01*
X00838095Y0006728D01*
X00826029D01*
X00825029Y0006828D01*
Y00101272D01*
X00826029Y00102272D01*
X00838095Y00102272D01*
X00839095Y00101272D01*
D02*
G37*
G36*
X00862095D02*
Y00091725D01*
X00863095Y00090725D01*
X00865878D01*
X00866878Y00089725D01*
X00866878Y00079827D01*
X00865878Y00078827D01*
X00863095D01*
X00862095Y00077827D01*
Y0006828D01*
X00863095Y0006728D01*
X00875162D01*
X00876162Y0006828D01*
Y00101272D01*
X00875162Y00102272D01*
X00863095Y00102272D01*
X00862095Y00101272D01*
D02*
G37*
G36*
X01032728Y006065D02*
X01042275Y006065D01*
X01043275Y006055D01*
Y00602717D01*
X01044275Y00601717D01*
X01054173Y00601717D01*
X01055173Y00602717D01*
X01055173Y006055D01*
X01056173Y006065D01*
X0106572D01*
X0106672Y006055D01*
Y00593433D01*
X0106572Y00592433D01*
X01032728D01*
X01031728Y00593433D01*
X01031728Y006055D01*
X01032728Y006065D01*
D02*
G37*
G36*
Y006295D02*
X01042275D01*
X01043275Y006305D01*
Y00633283D01*
X01044275Y00634283D01*
X01054173Y00634283D01*
X01055173Y00633283D01*
Y006305D01*
X01056173Y006295D01*
X0106572D01*
X0106672Y006305D01*
Y00642567D01*
X0106572Y00643567D01*
X01032728D01*
X01031728Y00642567D01*
Y006305D01*
X01032728Y006295D01*
D02*
G37*
D10*
X0035Y00182934D02*
Y00282934D01*
X002D02*
X0035D01*
X002Y00182934D02*
Y00282934D01*
Y00182934D02*
X0035D01*
X009Y0018D02*
Y0053D01*
X011D01*
X009Y0018D02*
X011D01*
X011D02*
Y0053D01*
X002Y00182939D02*
Y00282939D01*
Y00182939D02*
X0035D01*
Y00282944D01*
X003D02*
X0035D01*
X002D02*
X0035D01*
X0Y0D02*
Y007D01*
X015D01*
Y0D02*
Y007D01*
X0Y0D02*
X015D01*
D15*
X006277Y00348241D02*
D03*
X006123D02*
D03*
X006247Y00402D02*
D03*
X006093D02*
D03*
X009167Y00159D02*
D03*
X009013D02*
D03*
D16*
X00716Y002026D02*
D03*
Y00218D02*
D03*
X00717Y00153D02*
D03*
X00717Y001684D02*
D03*
X01375Y003023D02*
D03*
Y003177D02*
D03*
X01272Y002866D02*
D03*
X01272Y00302D02*
D03*
X00858Y005837D02*
D03*
Y005683D02*
D03*
Y00629D02*
D03*
Y006444D02*
D03*
X01365Y001627D02*
D03*
X01365Y001473D02*
D03*
D17*
X01305311Y0011352D02*
D03*
X01305311Y0017942D02*
D03*
X00782Y00574D02*
D03*
Y006399D02*
D03*
D18*
X0139225Y00251114D02*
D03*
X0145815D02*
D03*
X0123075Y00396886D02*
D03*
X0116485D02*
D03*
D19*
X0128Y00517D02*
D03*
Y00559D02*
D03*
X01325Y00518D02*
D03*
X01325Y0056D02*
D03*
X00912Y006015D02*
D03*
Y006435D02*
D03*
D20*
X00984475Y006351D02*
D03*
X00984475Y005909D02*
D03*
D21*
X01434Y00387D02*
D03*
D22*
X01331Y00353D02*
D03*
X01331Y0037D02*
D03*
Y00387D02*
D03*
Y00404D02*
D03*
Y00421D02*
D03*
D23*
X00869129Y00084776D02*
D03*
X00832062D02*
D03*
D24*
X01177Y0032556D02*
D03*
Y002D02*
D03*
Y00478D02*
D03*
Y0060356D02*
D03*
D25*
X01049224Y00636533D02*
D03*
X01049224Y00599467D02*
D03*
M02*
