G04*
G04 #@! TF.GenerationSoftware,Altium Limited,Altium Designer,19.0.4 (130)*
G04*
G04 Layer_Color=16711935*
%FSTAX44Y44*%
%MOMM*%
G71*
G01*
G75*
%ADD10C,0.2540*%
%ADD64C,0.1000*%
D10*
X0035Y00182934D02*
Y00282934D01*
X002D02*
X0035D01*
X002Y00182934D02*
Y00282934D01*
Y00182934D02*
X0035D01*
X009Y0018D02*
Y0053D01*
X011D01*
X009Y0018D02*
X011D01*
X011D02*
Y0053D01*
X002Y00182939D02*
Y00282939D01*
Y00182939D02*
X0035D01*
Y00282944D01*
X003D02*
X0035D01*
X002D02*
X0035D01*
X0Y0D02*
Y007D01*
X015D01*
Y0D02*
Y007D01*
X0Y0D02*
X015D01*
D64*
X0072217Y0021225D02*
X0072517Y0020925D01*
X0072117Y0021025D02*
X0072417Y0020725D01*
X00716Y002063D02*
Y002143D01*
X00712Y002123D02*
X0072D01*
X00712Y002083D02*
X00716Y002123D01*
X0072Y002083D01*
X00712D02*
X0072D01*
X01267Y005164D02*
X01293D01*
X01267Y005596D02*
X01293D01*
Y005164D02*
Y005596D01*
X01267Y005164D02*
Y005596D01*
X01312Y005174D02*
X01338Y005174D01*
X01312Y005606D02*
X01338D01*
X01338Y005174D01*
X01312Y005174D02*
Y005606D01*
X00965425Y0063585D02*
X01003525D01*
X00965425Y0059015D02*
X01003525D01*
X01003525Y0063585D01*
X00965425Y0059015D02*
Y0063585D01*
X01362Y0033375D02*
X014585D01*
X01362Y0044025D02*
X014585D01*
Y0033375D02*
Y0044025D01*
X01362Y0033375D02*
X01362Y0044025D01*
X00925Y006009D02*
Y006441D01*
X00899Y006009D02*
Y006441D01*
Y006009D02*
X00925D01*
X00899Y006441D02*
X00925D01*
M02*
