G04*
G04 #@! TF.GenerationSoftware,Altium Limited,Altium Designer,19.0.4 (130)*
G04*
G04 Layer_Color=32896*
%FSTAX44Y44*%
%MOMM*%
G71*
G01*
G75*
%ADD10C,0.2540*%
D10*
X01016382Y00657279D02*
Y00642044D01*
X01008764D01*
X01006225Y00644583D01*
Y0065474D01*
X01008764Y00657279D01*
X01016382D01*
X0099099D02*
X01001147D01*
Y00642044D01*
X0099099D01*
X01001147Y00649661D02*
X00996069D01*
X00978294Y00642044D02*
Y00657279D01*
X00985912Y00649661D01*
X00975755D01*
X00846952Y00160749D02*
Y00145514D01*
X00839334D01*
X00836795Y00148053D01*
Y0015821D01*
X00839334Y00160749D01*
X00846952D01*
X0082156D02*
X00831717D01*
Y00145514D01*
X0082156D01*
X00831717Y00153132D02*
X00826639D01*
X00806325Y00145514D02*
X00816482D01*
X00806325Y00155671D01*
Y0015821D01*
X00808864Y00160749D01*
X00813943D01*
X00816482Y0015821D01*
X00729076Y00306937D02*
Y00291702D01*
X00721459D01*
X00718919Y00294241D01*
Y00304398D01*
X00721459Y00306937D01*
X00729076D01*
X00703684D02*
X00713841D01*
Y00291702D01*
X00703684D01*
X00713841Y00299319D02*
X00708763D01*
X00698606Y00291702D02*
X00693528D01*
X00696067D01*
Y00306937D01*
X00698606Y00304398D01*
X0035Y00182934D02*
Y00282934D01*
X002D02*
X0035D01*
X002Y00182934D02*
Y00282934D01*
Y00182934D02*
X0035D01*
X009Y0018D02*
Y0053D01*
X011D01*
X009Y0018D02*
X011D01*
X011D02*
Y0053D01*
X002Y00182939D02*
Y00282939D01*
Y00182939D02*
X0035D01*
Y00282944D01*
X003D02*
X0035D01*
X002D02*
X0035D01*
X0Y0D02*
Y007D01*
X015D01*
Y0D02*
Y007D01*
X0Y0D02*
X015D01*
M02*
