G04*
G04 #@! TF.GenerationSoftware,Altium Limited,Altium Designer,19.0.4 (130)*
G04*
G04 Layer_Physical_Order=1*
G04 Layer_Color=255*
%FSTAX44Y44*%
%MOMM*%
G71*
G01*
G75*
%ADD10C,0.2540*%
%ADD15R,0.9300X0.9800*%
%ADD16R,0.9800X0.9300*%
%ADD17R,1.2600X3.6100*%
%ADD18R,3.6100X1.2600*%
%ADD19R,2.0000X2.0000*%
%ADD20R,2.7430X2.1590*%
%ADD21R,8.4000X10.6500*%
%ADD22R,3.8000X1.0500*%
%ADD23R,1.4067X3.4992*%
%ADD24R,3.9200X3.4240*%
%ADD25R,3.4992X1.4067*%
%ADD47C,1.5000*%
%ADD48C,0.7000*%
%ADD49C,2.0000*%
%ADD50C,1.0000*%
%ADD51C,1.5240*%
%ADD52R,1.5240X1.5240*%
%ADD53C,2.2000*%
%ADD54C,8.8900*%
%ADD55C,0.8890*%
%ADD56C,2.5000*%
%ADD57C,1.8000*%
%ADD58C,1.6000*%
%ADD59R,1.6000X1.6000*%
%ADD60C,3.3000*%
%ADD61C,1.0000*%
G36*
X00869941Y0064902D02*
X00868597Y00647654D01*
X00864637Y00643174D01*
X00864001Y00642299D01*
X00863506Y00641523D01*
X00863152Y00640844D01*
X0086294Y00640263D01*
X00862869Y00639781D01*
X0085313Y0064902D01*
X00853708Y0064909D01*
X00854374Y00649302D01*
X00855128Y00649656D01*
X00855969Y00650151D01*
X00856899Y00650787D01*
X00859023Y00652484D01*
X00861499Y00654747D01*
X00862869Y00656091D01*
X00869941Y0064902D01*
D02*
G37*
G36*
X0078837Y0065345D02*
X0078867Y006526D01*
X00789169Y0065185D01*
X0078987Y006512D01*
X0079077Y0065065D01*
X0079187Y006502D01*
X00793169Y0064985D01*
X00794669Y006496D01*
X00796369Y0064945D01*
X0079827Y006494D01*
Y006394D01*
X00796369Y0063935D01*
X00794669Y006392D01*
X00793169Y0063895D01*
X0079187Y006386D01*
X0079077Y0063815D01*
X0078987Y006376D01*
X00789169Y0063695D01*
X0078867Y006362D01*
X0078837Y0063535D01*
X0078827Y006344D01*
Y006544D01*
X0078837Y0065345D01*
D02*
G37*
G36*
X00775761Y006344D02*
X00775661Y0063535D01*
X0077536Y006362D01*
X00774858Y0063695D01*
X00774156Y006376D01*
X00773253Y0063815D01*
X0077215Y006386D01*
X00770846Y0063895D01*
X00769342Y006392D01*
X00767636Y0063935D01*
X00765731Y006394D01*
Y006494D01*
X00767636Y0064945D01*
X00769342Y006496D01*
X00770846Y0064985D01*
X0077215Y006502D01*
X00773253Y0065065D01*
X00774156Y006512D01*
X00774858Y0065185D01*
X0077536Y006526D01*
X00775661Y0065345D01*
X00775761Y006544D01*
Y006344D01*
D02*
G37*
G36*
X0091193Y00633561D02*
X00911388Y00633954D01*
X00910747Y00634149D01*
X00910006Y00634146D01*
X00909165Y00633945D01*
X00908225Y00633546D01*
X00907186Y00632949D01*
X00906046Y00632154D01*
X00904807Y00631161D01*
X0090203Y00628581D01*
X00897081Y00633531D01*
X0089847Y00634969D01*
X00900654Y00637546D01*
X00901449Y00638685D01*
X00902046Y00639725D01*
X00902445Y00640665D01*
X00902646Y00641506D01*
X00902649Y00642247D01*
X00902454Y00642888D01*
X00902061Y0064343D01*
X0091193Y00633561D01*
D02*
G37*
G36*
X00972844Y00650953D02*
X00976525Y00647835D01*
X00978152Y00646701D01*
X00979637Y00645849D01*
X0098098Y00645281D01*
X00982181Y00644995D01*
X00983241Y00644992D01*
X00984158Y00645271D01*
X00984933Y00645834D01*
X00970821Y00631722D01*
X00971384Y00632497D01*
X00971664Y00633415D01*
X0097166Y00634474D01*
X00971375Y00635675D01*
X00970806Y00637018D01*
X00969954Y00638503D01*
X0096882Y0064013D01*
X00967402Y006419D01*
X00963719Y00645864D01*
X0097079Y00652936D01*
X00972844Y00650953D01*
D02*
G37*
G36*
X01034639Y00651368D02*
X01039894Y00646962D01*
X01042268Y0064533D01*
X01044474Y00644079D01*
X01046511Y00643209D01*
X01048379Y00642719D01*
X01050079Y00642611D01*
X0105161Y00642883D01*
X01052972Y00643536D01*
X0104789Y00640181D01*
X01048121Y00640131D01*
X01048677Y00640058D01*
X01049224Y00640033D01*
Y00633033D01*
X01048677Y00633009D01*
X01048121Y00632935D01*
X01047556Y00632813D01*
X01046981Y00632642D01*
X01046396Y00632422D01*
X01045802Y00632153D01*
X01045199Y00631835D01*
X01044653Y00631508D01*
Y00630588D01*
X01044021Y00631052D01*
X01044007Y00631061D01*
X01043333Y00630588D01*
Y00631489D01*
X01042786Y00631835D01*
X01042183Y00632153D01*
X01041589Y00632422D01*
X01041005Y00632642D01*
X0104043Y00632813D01*
X01039864Y00632935D01*
X01039308Y00633009D01*
X01038761Y00633033D01*
Y00634154D01*
X01031758Y0062953D01*
X01031652Y00630282D01*
X01031334Y00631178D01*
X01030804Y00632219D01*
X01030061Y00633403D01*
X01029107Y00634731D01*
X01026561Y00637821D01*
X01023167Y00641487D01*
X01021152Y00643536D01*
X01031758Y00654143D01*
X01034639Y00651368D01*
D02*
G37*
G36*
X0063726Y00637054D02*
X00636409Y00636184D01*
X00633835Y0063317D01*
X006334Y00632533D01*
X00633047Y00631943D01*
X00632779Y00631399D01*
X00632593Y00630902D01*
X00632491Y00630451D01*
X00620051Y0064289D01*
X00620502Y00642993D01*
X00620999Y00643178D01*
X00621543Y00643447D01*
X00622133Y006438D01*
X0062277Y00644235D01*
X00624184Y00645355D01*
X0062496Y0064604D01*
X00626654Y0064766D01*
X0063726Y00637054D01*
D02*
G37*
G36*
X00513395Y00623204D02*
X00512387Y00623925D01*
X0051039Y0062514D01*
X00509402Y00625634D01*
X00508419Y00626051D01*
X00507601Y00626338D01*
X00504162Y00626668D01*
X00495069Y00626979D01*
X0049134Y00627D01*
Y00637D01*
X00495069Y00637021D01*
X00508263Y00637894D01*
X00508419Y00637949D01*
X00509402Y00638367D01*
X0051039Y0063886D01*
X00511385Y00639429D01*
X00512387Y00640075D01*
X00513395Y00640796D01*
Y00623204D01*
D02*
G37*
G36*
X00862609Y0062431D02*
X00862376Y006241D01*
X00862171Y0062375D01*
X00861993Y0062326D01*
X00861842Y00622631D01*
X00861719Y00621861D01*
X00861623Y00620951D01*
X00861514Y00618711D01*
X008615Y0061738D01*
X008545D01*
X00854486Y00618711D01*
X00854281Y00621861D01*
X00854158Y00622631D01*
X00854007Y0062326D01*
X00853829Y0062375D01*
X00853624Y006241D01*
X00853391Y0062431D01*
X0085313Y0062438D01*
X00862869D01*
X00862609Y0062431D01*
D02*
G37*
G36*
X00997594Y006377D02*
X00997311Y00636781D01*
Y0063572D01*
X00997594Y00634518D01*
X00998159Y00633174D01*
X00999008Y00631689D01*
X01000139Y00630063D01*
X01001554Y00628295D01*
X01005231Y00624336D01*
X00998159Y00617264D01*
X00996109Y00619244D01*
X00992432Y00622356D01*
X00990806Y00623487D01*
X00989321Y00624336D01*
X00987977Y00624901D01*
X00986775Y00625184D01*
X00985714D01*
X00984795Y00624901D01*
X00984017Y00624336D01*
X00998159Y00638478D01*
X00997594Y006377D01*
D02*
G37*
G36*
X01031758Y00592464D02*
X01031689Y00592888D01*
X01031479Y00593267D01*
X01031128Y00593602D01*
X01030639Y00593892D01*
X01030008Y00594137D01*
X01029239Y00594338D01*
X01028328Y00594494D01*
X01027279Y00594606D01*
X01024759Y00594695D01*
Y00601695D01*
X01026088Y0060173D01*
X01027279Y00601835D01*
X01028328Y0060201D01*
X01029239Y00602255D01*
X01030008Y0060257D01*
X01030639Y00602955D01*
X01031128Y0060341D01*
X01031479Y00603935D01*
X01031689Y0060453D01*
X01031758Y00605195D01*
Y00592464D01*
D02*
G37*
G36*
X00922011Y0060453D02*
X00922223Y00603935D01*
X00922575Y0060341D01*
X00923068Y00602955D01*
X00923701Y0060257D01*
X00924474Y00602255D01*
X00925387Y0060201D01*
X00926441Y00601835D01*
X00927635Y0060173D01*
X00928969Y00601695D01*
Y00594695D01*
X00927639Y00594663D01*
X0092645Y00594568D01*
X00925399Y0059441D01*
X0092449Y00594189D01*
X00923719Y00593904D01*
X0092309Y00593556D01*
X00922599Y00593144D01*
X0092225Y0059267D01*
X00922039Y00592132D01*
X0092197Y0059153D01*
X00921939Y00605195D01*
X00922011Y0060453D01*
D02*
G37*
G36*
X0100516Y00594695D02*
X01003826Y0059466D01*
X01002632Y00594555D01*
X01001578Y0059438D01*
X01000665Y00594135D01*
X00999892Y0059382D01*
X00999259Y00593435D01*
X00998766Y0059298D01*
X00998413Y00592455D01*
X00998201Y0059186D01*
X00998129Y00591195D01*
X00998159Y00601665D01*
X0099823Y0060167D01*
X00998439Y00601675D01*
X0100516Y00601695D01*
Y00594695D01*
D02*
G37*
G36*
X0097079Y00601665D02*
X00970821Y00591195D01*
X00970749Y0059186D01*
X00970536Y00592455D01*
X00970184Y0059298D01*
X00969691Y00593435D01*
X00969058Y0059382D01*
X00968285Y00594135D01*
X00967372Y0059438D01*
X00966318Y00594555D01*
X00965125Y0059466D01*
X00963791Y00594695D01*
Y00601695D01*
X0097079Y00601665D01*
D02*
G37*
G36*
X00861514Y0059399D02*
X00861719Y0059084D01*
X00861842Y0059007D01*
X00861993Y0058944D01*
X00862171Y0058895D01*
X00862376Y005886D01*
X00862609Y0058839D01*
X00862869Y0058832D01*
X0085313D01*
X00853391Y0058839D01*
X00853624Y005886D01*
X00853829Y0058895D01*
X00854007Y0058944D01*
X00854158Y0059007D01*
X00854281Y0059084D01*
X00854377Y0059175D01*
X00854486Y0059399D01*
X008545Y0059532D01*
X008615D01*
X00861514Y0059399D01*
D02*
G37*
G36*
X0085313Y00579081D02*
X00853061Y00579293D01*
X0085285Y00579483D01*
X00852501Y00579651D01*
X0085201Y00579797D01*
X0085138Y0057992D01*
X00850611Y00580021D01*
X00848651Y00580155D01*
X00846131Y005802D01*
Y005872D01*
X0084746Y00587211D01*
X0085138Y0058748D01*
X0085201Y00587603D01*
X00852501Y00587749D01*
X0085285Y00587916D01*
X00853061Y00588107D01*
X0085313Y0058832D01*
Y00579081D01*
D02*
G37*
G36*
X00785505Y00580276D02*
X00785665Y00577955D01*
X00785725Y0057765D01*
X00785794Y00577398D01*
X00785872Y00577199D01*
X00785959Y00577054D01*
X00778041D01*
X00778128Y00577199D01*
X00778206Y00577398D01*
X00778275Y0057765D01*
X00778335Y00577955D01*
X00778385Y00578313D01*
X00778459Y00579188D01*
X007785Y005809D01*
X007855D01*
X00785505Y00580276D01*
D02*
G37*
G36*
X00788339Y00590035D02*
X00788549Y0058944D01*
X007889Y00588915D01*
X00789389Y0058846D01*
X0079002Y00588075D01*
X00790789Y0058776D01*
X007917Y00587515D01*
X00792749Y0058734D01*
X0079394Y00587235D01*
X00795269Y005872D01*
Y005802D01*
X0079394Y00580165D01*
X00792749Y0058006D01*
X007917Y00579885D01*
X00790789Y0057964D01*
X0079002Y00579325D01*
X00789389Y0057894D01*
X007889Y00578485D01*
X00788549Y0057796D01*
X00788339Y00577365D01*
X0078827Y005767D01*
Y005907D01*
X00788339Y00590035D01*
D02*
G37*
G36*
X00775761Y00564D02*
X00775661Y0056495D01*
X0077536Y005658D01*
X00774858Y0056655D01*
X00774156Y005672D01*
X00773253Y0056775D01*
X0077215Y005682D01*
X00770846Y0056855D01*
X00769342Y005688D01*
X00767636Y0056895D01*
X00765731Y00569D01*
Y00579D01*
X00767636Y0057905D01*
X00769342Y005792D01*
X00770846Y0057945D01*
X0077215Y005798D01*
X00773253Y0058025D01*
X00774156Y005808D01*
X00774858Y0058145D01*
X0077536Y005822D01*
X00775661Y0058305D01*
X00775761Y00584D01*
Y00564D01*
D02*
G37*
G36*
X0086294Y00572707D02*
X00863149Y00572517D01*
X008635Y00572349D01*
X00863989Y00572203D01*
X0086462Y0057208D01*
X00865389Y00571979D01*
X00867349Y00571845D01*
X0086987Y005718D01*
Y005648D01*
X0086854Y00564789D01*
X0086462Y0056452D01*
X00863989Y00564397D01*
X008635Y00564251D01*
X00863149Y00564084D01*
X0086294Y00563893D01*
X00862869Y0056368D01*
Y0057292D01*
X0086294Y00572707D01*
D02*
G37*
G36*
X01335Y0055D02*
X0127D01*
Y006D01*
X01335D01*
Y0055D01*
D02*
G37*
G36*
X00505424Y00496855D02*
X00505105Y00497063D01*
X00504729Y00497249D01*
X00504296Y00497413D01*
X00503806Y00497555D01*
X0050326Y00497675D01*
X00502657Y00497774D01*
X00501281Y00497905D01*
X00500508Y00497938D01*
X00499678Y00497948D01*
Y00507948D01*
X00500508Y00507959D01*
X00502657Y00508123D01*
X0050326Y00508222D01*
X00503806Y00508342D01*
X00504296Y00508484D01*
X00504729Y00508648D01*
X00505105Y00508834D01*
X00505424Y00509042D01*
Y00496855D01*
D02*
G37*
G36*
X00520238Y00483167D02*
X00517249Y00480583D01*
X00511016Y00490485D01*
X00511448Y00490461D01*
X00511898Y00490503D01*
X00512365Y00490611D01*
X0051285Y00490785D01*
X00513354Y00491024D01*
X00513875Y0049133D01*
X00514414Y00491701D01*
X00514971Y00492138D01*
X00515546Y00492641D01*
X00516139Y0049321D01*
X00520238Y00483167D01*
D02*
G37*
G36*
X00873198Y00480828D02*
X00873666Y00478688D01*
X00873945Y00477729D01*
X00874255Y00476844D01*
X00874595Y00476034D01*
X00874965Y00475298D01*
X00875365Y00474637D01*
X00875795Y00474049D01*
X00876256Y00473536D01*
X00871306Y00468587D01*
X00870793Y00469047D01*
X00870206Y00469478D01*
X00869544Y00469878D01*
X00868808Y00470248D01*
X00867998Y00470588D01*
X00867114Y00470897D01*
X00866155Y00471176D01*
X00864014Y00471644D01*
X00862832Y00471833D01*
X0087301Y0048201D01*
X00873198Y00480828D01*
D02*
G37*
G36*
X01196639Y00470715D02*
X0119685Y0047012D01*
X01197199Y00469595D01*
X0119769Y0046914D01*
X01198319Y00468755D01*
X0119909Y0046844D01*
X012Y00468195D01*
X01201049Y0046802D01*
X0120224Y00467915D01*
X0120357Y0046788D01*
Y0046088D01*
X0119657Y0046091D01*
Y0047138D01*
X01196639Y00470715D01*
D02*
G37*
G36*
X0136Y00415D02*
X0128D01*
Y00482933D01*
X0136D01*
Y00415D01*
D02*
G37*
G36*
X0062939Y00406609D02*
X006296Y00406376D01*
X0062995Y00406171D01*
X0063044Y00405993D01*
X0063107Y00405842D01*
X0063184Y00405719D01*
X0063275Y00405623D01*
X0063499Y00405514D01*
X0063632Y004055D01*
Y003985D01*
X0063499Y00398486D01*
X0063184Y00398281D01*
X0063107Y00398158D01*
X0063044Y00398007D01*
X0062995Y00397829D01*
X006296Y00397623D01*
X0062939Y00397391D01*
X0062932Y00397131D01*
Y0040687D01*
X0062939Y00406609D01*
D02*
G37*
G36*
X0060468Y00397131D02*
X0060461Y00397391D01*
X006044Y00397623D01*
X0060405Y00397829D01*
X0060356Y00398007D01*
X0060293Y00398158D01*
X0060216Y00398281D01*
X0060125Y00398377D01*
X00599011Y00398486D01*
X00597681Y003985D01*
Y004055D01*
X00599011Y00405514D01*
X0060216Y00405719D01*
X0060293Y00405842D01*
X0060356Y00405993D01*
X0060405Y00406171D01*
X006044Y00406376D01*
X0060461Y00406609D01*
X0060468Y0040687D01*
Y00397131D01*
D02*
G37*
G36*
X0115673Y00390647D02*
X01156189Y0039104D01*
X01155547Y00391235D01*
X01154806Y00391231D01*
X01153966Y00391031D01*
X01153026Y00390631D01*
X01151986Y00390034D01*
X01150846Y00389239D01*
X01149607Y00388246D01*
X01146831Y00385667D01*
X01141881Y00390616D01*
X0114327Y00392054D01*
X01145454Y00394632D01*
X01146249Y00395771D01*
X01146846Y00396811D01*
X01147245Y00397751D01*
X01147446Y00398592D01*
X01147449Y00399333D01*
X01147254Y00399974D01*
X01146861Y00400516D01*
X0115673Y00390647D01*
D02*
G37*
G36*
X01222535Y00390575D02*
X0122194Y00390362D01*
X01221415Y0039001D01*
X0122096Y00389517D01*
X01220575Y00388884D01*
X0122026Y00388111D01*
X01220015Y00387197D01*
X0121984Y00386144D01*
X01219735Y0038495D01*
X012197Y00383616D01*
X012127D01*
X0121273Y00390616D01*
X012232Y00390647D01*
X01222535Y00390575D01*
D02*
G37*
G36*
X00515265Y00388534D02*
X00516635Y00387704D01*
X00517316Y00387367D01*
X00517994Y00387082D01*
X00518669Y00386848D01*
X00519341Y00386667D01*
X0052001Y00386537D01*
X00520677Y00386459D01*
X00521341Y00386433D01*
Y00379433D01*
X00520677Y00379408D01*
X0052001Y0037933D01*
X00519341Y003792D01*
X00518669Y00379019D01*
X00517994Y00378785D01*
X00517316Y003785D01*
X00516635Y00378163D01*
X00515951Y00377774D01*
X00515265Y00377333D01*
X00514576Y0037684D01*
Y00389027D01*
X00515265Y00388534D01*
D02*
G37*
G36*
X01312061Y00365481D02*
X01312015Y00365675D01*
X01311879Y00365848D01*
X01311651Y00366001D01*
X01311333Y00366133D01*
X01310923Y00366245D01*
X01310423Y00366337D01*
X01309832Y00366408D01*
X01308376Y0036649D01*
X01307511Y003665D01*
Y003735D01*
X01308376Y0037351D01*
X01310423Y00373663D01*
X01310923Y00373755D01*
X01311333Y00373867D01*
X01311651Y00373999D01*
X01311879Y00374152D01*
X01312015Y00374325D01*
X01312061Y00374519D01*
Y00365481D01*
D02*
G37*
G36*
X00174895Y00368829D02*
X00175271Y00368643D01*
X00175704Y00368479D01*
X00176194Y00368337D01*
X0017674Y00368217D01*
X00177343Y00368119D01*
X00178719Y00367987D01*
X00179492Y00367955D01*
X00180322Y00367944D01*
Y00357944D01*
X00179492Y00357933D01*
X00177343Y00357769D01*
X0017674Y0035767D01*
X00176194Y0035755D01*
X00175704Y00357408D01*
X00175271Y00357244D01*
X00174895Y00357058D01*
X00174576Y00356851D01*
Y00369037D01*
X00174895Y00368829D01*
D02*
G37*
G36*
X0063239Y0035285D02*
X006326Y00352618D01*
X0063295Y00352412D01*
X0063344Y00352234D01*
X0063407Y00352084D01*
X0063484Y0035196D01*
X0063575Y00351864D01*
X0063799Y00351755D01*
X0063932Y00351741D01*
Y00344741D01*
X0063799Y00344728D01*
X0063484Y00344522D01*
X0063407Y00344399D01*
X0063344Y00344248D01*
X0063295Y0034407D01*
X006326Y00343865D01*
X0063239Y00343632D01*
X0063232Y00343372D01*
Y00353111D01*
X0063239Y0035285D01*
D02*
G37*
G36*
X00607681Y00343372D02*
X00607611Y00343632D01*
X00607401Y00343865D01*
X00607051Y0034407D01*
X00606561Y00344248D01*
X0060593Y00344399D01*
X0060516Y00344522D01*
X0060425Y00344618D01*
X0060201Y00344728D01*
X00600681Y00344741D01*
Y00351741D01*
X0060201Y00351755D01*
X0060516Y0035196D01*
X0060593Y00352084D01*
X00606561Y00352234D01*
X00607051Y00352412D01*
X00607401Y00352618D01*
X00607611Y0035285D01*
X00607681Y00353111D01*
Y00343372D01*
D02*
G37*
G36*
X00865367Y00339331D02*
X00864185Y00339142D01*
X00862045Y00338675D01*
X00861086Y00338396D01*
X00860201Y00338086D01*
X00859391Y00337746D01*
X00858655Y00337376D01*
X00857993Y00336976D01*
X00857406Y00336546D01*
X00856893Y00336085D01*
X00851944Y00341035D01*
X00852404Y00341548D01*
X00852835Y00342135D01*
X00853235Y00342797D01*
X00853605Y00343532D01*
X00853944Y00344343D01*
X00854254Y00345227D01*
X00854533Y00346186D01*
X00855001Y00348327D01*
X00855189Y00349508D01*
X00865367Y00339331D01*
D02*
G37*
G36*
X00515265Y00328539D02*
X00516635Y00327709D01*
X00517316Y00327372D01*
X00517994Y00327087D01*
X00518669Y00326854D01*
X00519341Y00326672D01*
X0052001Y00326542D01*
X00520677Y00326465D01*
X00521341Y00326439D01*
Y00319439D01*
X00520677Y00319413D01*
X0052001Y00319335D01*
X00519341Y00319205D01*
X00518669Y00319024D01*
X00517994Y0031879D01*
X00517316Y00318505D01*
X00516635Y00318168D01*
X00515951Y00317779D01*
X00515265Y00317338D01*
X00514576Y00316845D01*
Y00329032D01*
X00515265Y00328539D01*
D02*
G37*
G36*
X01379919Y00306055D02*
X01380067Y00305177D01*
X01380315Y00304286D01*
X01380661Y00303382D01*
X01381107Y00302465D01*
X01381651Y00301535D01*
X01382295Y00300591D01*
X01383037Y00299634D01*
X01383879Y00298664D01*
X01384819Y0029768D01*
X0137987Y00292731D01*
X01378881Y00293671D01*
X01377896Y00294513D01*
X01376914Y00295255D01*
X01375935Y00295899D01*
X0137496Y00296443D01*
X01373988Y00296889D01*
X01373018Y00297235D01*
X01372053Y00297482D01*
X0137109Y00297631D01*
X0137013Y0029768D01*
X0137987Y00306919D01*
X01379919Y00306055D01*
D02*
G37*
G36*
X0121Y00282934D02*
X0115D01*
Y00342954D01*
X0121D01*
Y00282934D01*
D02*
G37*
G36*
X01318074Y00282469D02*
X01317475Y00282807D01*
X01316862Y0028311D01*
X01316236Y00283377D01*
X01315595Y00283609D01*
X01314942Y00283805D01*
X01314274Y00283965D01*
X01313593Y0028409D01*
X01312899Y00284179D01*
X0131147Y0028425D01*
X01310148Y0029125D01*
X01310835Y0029128D01*
X0131151Y00291371D01*
X01312173Y00291521D01*
X01312825Y00291732D01*
X01313465Y00292003D01*
X01314093Y00292335D01*
X0131471Y00292726D01*
X01315315Y00293179D01*
X01315908Y00293691D01*
X0131649Y00294263D01*
X01318074Y00282469D01*
D02*
G37*
G36*
X01283869Y0028425D02*
X0128254Y00284227D01*
X012803Y00284046D01*
X01279389Y00283887D01*
X0127862Y00283683D01*
X0127799Y00283433D01*
X01277499Y00283138D01*
X0127715Y00282798D01*
X01276939Y00282412D01*
X0127687Y0028198D01*
Y0029122D01*
X01276939Y00291225D01*
X0127715Y00291231D01*
X01283869Y0029125D01*
Y0028425D01*
D02*
G37*
G36*
X00177631Y00289656D02*
X00177845Y00289295D01*
X00178203Y00288976D01*
X00178704Y00288699D01*
X00179348Y00288465D01*
X00180136Y00288274D01*
X00181066Y00288125D01*
X0018214Y00288019D01*
X00184716Y00287934D01*
Y00277934D01*
X00183356Y00277912D01*
X00181066Y00277742D01*
X00180136Y00277593D01*
X00179348Y00277402D01*
X00178704Y00277168D01*
X00178203Y00276892D01*
X00177845Y00276573D01*
X00177631Y00276211D01*
X00177559Y00275807D01*
Y0029006D01*
X00177631Y00289656D01*
D02*
G37*
G36*
X00502411Y00275344D02*
X00517589D01*
X00517098Y00275244D01*
X00516657Y00274944D01*
X00516269Y00274444D01*
X00515932Y00273744D01*
X00515647Y00272844D01*
X00515414Y00271744D01*
X00515233Y00270444D01*
X00515104Y00268944D01*
X00515Y00265344D01*
X00505D01*
X00504974Y00267244D01*
X00504586Y00271744D01*
X00504353Y00272844D01*
X00504068Y00273744D01*
X00503731Y00274444D01*
X00503343Y00274944D01*
X00502902Y00275244D01*
X00502411Y00275344D01*
X0050231Y00275836D01*
X0050201Y00276276D01*
X00501511Y00276665D01*
X00500811Y00277001D01*
X00499911Y00277286D01*
X00498811Y00277519D01*
X0049751Y00277701D01*
X00496011Y0027783D01*
X00492411Y00277934D01*
Y00287934D01*
X0049431Y0028796D01*
X00498811Y00288348D01*
X00499911Y00288581D01*
X00500811Y00288866D01*
X00501511Y00289202D01*
X0050201Y00289591D01*
X0050231Y00290031D01*
X00502411Y00290523D01*
Y00275344D01*
D02*
G37*
G36*
X01332494Y00269544D02*
X01332043Y00269056D01*
X01331626Y0026853D01*
X01331245Y00267965D01*
X01330898Y00267361D01*
X01330586Y00266719D01*
X01330308Y00266038D01*
X01330065Y00265318D01*
X01329857Y0026456D01*
X01329683Y00263763D01*
X01329544Y00262927D01*
X01320927Y00271544D01*
X01321763Y00271683D01*
X01323318Y00272065D01*
X01324038Y00272308D01*
X01324719Y00272586D01*
X01325361Y00272898D01*
X01325965Y00273245D01*
X0132653Y00273626D01*
X01327056Y00274043D01*
X01327544Y00274494D01*
X01332494Y00269544D01*
D02*
G37*
G36*
X00839424Y00260418D02*
X00838425Y00261574D01*
X00836486Y0026352D01*
X00835547Y0026431D01*
X00834628Y00264979D01*
X00833728Y00265527D01*
X00832849Y00265953D01*
X00831989Y00266257D01*
X0083115Y00266439D01*
X0083033Y002665D01*
X00832109Y002735D01*
X00832914Y00273536D01*
X00833774Y00273644D01*
X0083469Y00273825D01*
X0083566Y00274077D01*
X00837766Y00274799D01*
X00838902Y00275268D01*
X00842641Y00277108D01*
X00839424Y00260418D01*
D02*
G37*
G36*
X01396349Y00263048D02*
X01396454Y00261853D01*
X01396629Y00260798D01*
X01396874Y00259884D01*
X01397189Y00259111D01*
X01397574Y00258478D01*
X01398029Y00257986D01*
X01398554Y00257635D01*
X01399149Y00257424D01*
X01399814Y00257353D01*
X01385814D01*
X01386479Y00257424D01*
X01387074Y00257635D01*
X01387599Y00257986D01*
X01388054Y00258478D01*
X01388439Y00259111D01*
X01388754Y00259884D01*
X01388999Y00260798D01*
X01389174Y00261853D01*
X01389279Y00263048D01*
X01389314Y00264384D01*
X01396314D01*
X01396349Y00263048D01*
D02*
G37*
G36*
X0137423Y00244845D02*
X0137416Y00245371D01*
X01373951Y00245842D01*
X013736Y00246257D01*
X01373111Y00246617D01*
X0137248Y00246922D01*
X01371711Y00247171D01*
X013708Y00247365D01*
X01369751Y00247504D01*
X0136856Y00247587D01*
X01367231Y00247614D01*
Y00254614D01*
X0136856Y00254642D01*
X013708Y00254864D01*
X01371711Y00255058D01*
X0137248Y00255307D01*
X01373111Y00255611D01*
X013736Y00255971D01*
X01373951Y00256387D01*
X0137416Y00256858D01*
X0137423Y00257384D01*
Y00244845D01*
D02*
G37*
G36*
X01332761Y00243414D02*
X01332274Y002429D01*
X01331821Y00242364D01*
X01331403Y00241807D01*
X01331019Y00241229D01*
X01330669Y0024063D01*
X01330353Y0024001D01*
X01330072Y00239369D01*
X01329824Y00238707D01*
X01329611Y00238023D01*
X01329432Y00237319D01*
X01321909Y00246619D01*
X01322733Y00246653D01*
X01323521Y00246735D01*
X01324274Y00246863D01*
X0132499Y0024704D01*
X01325672Y00247264D01*
X01326317Y00247535D01*
X01326927Y00247854D01*
X01327502Y00248221D01*
X0132804Y00248635D01*
X01328543Y00249096D01*
X01332761Y00243414D01*
D02*
G37*
G36*
X01317424Y00237105D02*
X01323073Y00231456D01*
X01322237Y00231317D01*
X01320682Y00230935D01*
X01319962Y00230692D01*
X01319281Y00230415D01*
X01318639Y00230102D01*
X01318035Y00229755D01*
X0131747Y00229373D01*
X01316944Y00228957D01*
X01316456Y00228506D01*
X01311506Y00233456D01*
X01311957Y00233944D01*
X01312373Y0023447D01*
X01312755Y00235035D01*
X01312858Y00235213D01*
X01312659Y00235267D01*
X0131199Y00235396D01*
X01311323Y00235474D01*
X01310659Y002355D01*
Y002425D01*
X01311323Y00242526D01*
X0131199Y00242604D01*
X01312659Y00242733D01*
X01313331Y00242915D01*
X01314007Y00243148D01*
X01314684Y00243434D01*
X01315365Y00243771D01*
X01316049Y0024416D01*
X01316735Y00244601D01*
X01317424Y00245093D01*
Y00237105D01*
D02*
G37*
G36*
X01483Y00224D02*
X01427D01*
X01427Y00273D01*
X01483Y00273D01*
Y00224D01*
D02*
G37*
G36*
X00725819Y00222619D02*
X00724879Y00221636D01*
X00723295Y00219709D01*
X00722652Y00218765D01*
X00722107Y00217835D01*
X00721662Y00216918D01*
X00721315Y00216014D01*
X00721068Y00215123D01*
X00720919Y00214245D01*
X0072087Y00213381D01*
X00711131Y00222619D01*
X0071209Y00222669D01*
X00713053Y00222817D01*
X00714018Y00223065D01*
X00714988Y00223412D01*
X0071596Y00223857D01*
X00716935Y00224401D01*
X00717914Y00225045D01*
X00718896Y00225787D01*
X00719881Y00226629D01*
X0072087Y00227569D01*
X00725819Y00222619D01*
D02*
G37*
G36*
X0120357Y0021012D02*
X01202236Y00210085D01*
X01201042Y0020998D01*
X01199988Y00209805D01*
X01199075Y0020956D01*
X01198302Y00209245D01*
X01197669Y0020886D01*
X01197176Y00208405D01*
X01196824Y0020788D01*
X01196611Y00207285D01*
X01196539Y0020662D01*
X0119657Y0021709D01*
X01196639Y00217095D01*
X0119685Y00217101D01*
X0120357Y0021712D01*
Y0021012D01*
D02*
G37*
G36*
X00858671Y00213855D02*
X00858611Y00211139D01*
X00858696Y00209927D01*
X00858856Y00208812D01*
X00859093Y00207794D01*
X00859407Y00206874D01*
X00859796Y0020605D01*
X00860262Y00205324D01*
X00860804Y00204696D01*
X0085446Y0020114D01*
X00853858Y00201694D01*
X00853171Y00202235D01*
X00852399Y00202765D01*
X00851541Y00203283D01*
X00849571Y00204283D01*
X00848458Y00204766D01*
X00844609Y00206142D01*
X00858815Y00215358D01*
X00858671Y00213855D01*
D02*
G37*
G36*
X00720704Y0019791D02*
X00720556Y00197701D01*
X00720426Y00197351D01*
X00720313Y00196861D01*
X00720217Y00196231D01*
X00720078Y0019455D01*
X0072Y0019098D01*
X00713D01*
X00712981Y00192311D01*
X00712832Y0019455D01*
X00712701Y0019546D01*
X00712533Y00196231D01*
X00712327Y00196861D01*
X00712084Y00197351D01*
X00711804Y00197701D01*
X00711486Y0019791D01*
X00711131Y0019798D01*
X0072087D01*
X00720704Y0019791D01*
D02*
G37*
G36*
X00720019Y0017869D02*
X00720168Y0017645D01*
X00720299Y0017554D01*
X00720467Y0017477D01*
X00720673Y0017414D01*
X00720916Y0017365D01*
X00721197Y001733D01*
X00721514Y0017309D01*
X0072187Y0017302D01*
X00712131D01*
X00712296Y0017309D01*
X00712443Y001733D01*
X00712574Y0017365D01*
X00712687Y0017414D01*
X00712783Y0017477D01*
X00712922Y0017645D01*
X00713Y0018002D01*
X0072D01*
X00720019Y0017869D01*
D02*
G37*
G36*
X0092139Y00163609D02*
X009216Y00163377D01*
X0092195Y00163171D01*
X0092244Y00162993D01*
X0092307Y00162842D01*
X0092384Y00162719D01*
X0092475Y00162623D01*
X0092699Y00162514D01*
X0092832Y001625D01*
Y001555D01*
X0092699Y00155486D01*
X0092384Y00155281D01*
X0092307Y00155158D01*
X0092244Y00155007D01*
X0092195Y00154829D01*
X009216Y00154623D01*
X0092139Y00154391D01*
X0092132Y0015413D01*
Y00163869D01*
X0092139Y00163609D01*
D02*
G37*
G36*
X00897664Y00167879D02*
X00899591Y00166295D01*
X00900535Y00165651D01*
X00901465Y00165107D01*
X00902382Y00164662D01*
X00903287Y00164315D01*
X00904177Y00164067D01*
X00905055Y00163919D01*
X00905919Y00163869D01*
X00896681Y0015413D01*
X00896631Y0015509D01*
X00896482Y00156053D01*
X00896235Y00157018D01*
X00895889Y00157988D01*
X00895443Y0015896D01*
X00894899Y00159935D01*
X00894255Y00160914D01*
X00893513Y00161896D01*
X00892671Y00162881D01*
X00891731Y00163869D01*
X00896681Y00168819D01*
X00897664Y00167879D01*
D02*
G37*
G36*
X00712131Y0014838D02*
X0071206Y00148593D01*
X00711851Y00148784D01*
X007115Y00148951D01*
X00711011Y00149097D01*
X0071038Y0014922D01*
X00709611Y00149321D01*
X00707651Y00149455D01*
X0070513Y001495D01*
Y001565D01*
X0070646Y00156511D01*
X0071038Y0015678D01*
X00711011Y00156903D01*
X007115Y00157049D01*
X00711851Y00157217D01*
X0071206Y00157407D01*
X00712131Y00157619D01*
Y0014838D01*
D02*
G37*
G36*
X01389012Y00193588D02*
Y00165D01*
X01380226Y00156214D01*
X01355D01*
X01343786Y00145D01*
X01265D01*
X01255Y00156214D01*
Y001928D01*
X012648Y002026D01*
X0138D01*
X01389012Y00193588D01*
D02*
G37*
G36*
X01123241Y00173291D02*
X01120726Y00170725D01*
X01118515Y00168152D01*
X0111828Y00167425D01*
X0111834Y00166782D01*
X011187Y00166237D01*
X0111936Y00165792D01*
X0112032Y00165445D01*
X0112158Y00165198D01*
X0112314Y00165049D01*
X01125Y00165D01*
X011Y00145D01*
Y00155D01*
X01105707Y00159287D01*
X01099994Y00165D01*
X01101087Y00165133D01*
X01102345Y00165531D01*
X01103766Y00166193D01*
X0110535Y0016712D01*
X01107098Y00168312D01*
X01109009Y00169768D01*
X01113323Y00173475D01*
X01118291Y00178241D01*
X01123241Y00173291D01*
D02*
G37*
G36*
X01012595Y00119204D02*
X01011221Y0012021D01*
X01007542Y00122593D01*
X01006463Y00123176D01*
X01006022Y00123369D01*
X01004768Y00123606D01*
X01002387Y00123928D01*
X00996715Y00124357D01*
X00989833Y001245D01*
Y001315D01*
X00993425Y00131536D01*
X01004768Y00132394D01*
X01006078Y00132642D01*
X01006463Y00132824D01*
X01008695Y00134095D01*
X01009921Y00134889D01*
X01012595Y00136796D01*
Y00119204D01*
D02*
G37*
G36*
X01326581Y0012057D02*
X01323731Y00120495D01*
X01321181Y0012027D01*
X01318931Y00119895D01*
X01316981Y0011937D01*
X01315331Y00118695D01*
X01313981Y0011787D01*
X01312931Y00116895D01*
X01312181Y0011577D01*
X01311731Y00114495D01*
X01311581Y0011307D01*
Y00131539D01*
X01311731Y00132305D01*
X01312181Y00132991D01*
X01312931Y00133595D01*
X01313981Y00134119D01*
X01315331Y00134562D01*
X01316981Y00134925D01*
X01318931Y00135207D01*
X01321181Y00135409D01*
X01326581Y0013557D01*
Y0012057D01*
D02*
G37*
G36*
X01299042Y00131539D02*
X01299072Y00108D01*
X0129887Y001099D01*
X01298267Y001116D01*
X01297264Y001131D01*
X01295861Y001144D01*
X01294058Y001155D01*
X01291855Y001164D01*
X01289252Y001171D01*
X01286249Y001176D01*
X01282845Y001179D01*
X01279042Y00118D01*
Y00138D01*
X01299042Y00131539D01*
D02*
G37*
G36*
X00495462Y00104732D02*
X00496335Y00091537D01*
X0049639Y00091381D01*
X00496808Y00090399D01*
X00497301Y0008941D01*
X0049787Y00088415D01*
X00498386Y00087615D01*
X0049842Y0008759D01*
X00502099Y00085207D01*
X00503178Y00084624D01*
X00503546Y00084463D01*
X00504886Y00084207D01*
X00507271Y0008388D01*
X00512941Y00083445D01*
X00519809Y000833D01*
Y000763D01*
X00516225Y00076264D01*
X00504886Y00075393D01*
X00503498Y00075128D01*
X00503178Y00074976D01*
X00500947Y00073705D01*
X0049972Y00072911D01*
X00497047Y00071004D01*
Y00076274D01*
X00493974Y00076262D01*
Y00083338D01*
X00494082Y00083331D01*
X00495599Y00083314D01*
X00497047Y00083311D01*
Y00086406D01*
X00481645D01*
X00482366Y00087413D01*
X00483581Y0008941D01*
X00484075Y00090399D01*
X00484492Y00091381D01*
X00484779Y00092199D01*
X00485109Y00095638D01*
X0048542Y00104732D01*
X00485441Y0010846D01*
X00495441D01*
X00495462Y00104732D01*
D02*
G37*
G36*
X0082509Y00069941D02*
X00824941Y00070859D01*
X00824495Y00071681D01*
X00823752Y00072407D01*
X00822711Y00073035D01*
X00821373Y00073567D01*
X00819738Y00074002D01*
X00817805Y00074341D01*
X00815576Y00074583D01*
X00810224Y00074776D01*
Y00094776D01*
X00813048Y00094824D01*
X00817805Y00095211D01*
X00819738Y0009555D01*
X00821373Y00095985D01*
X00822711Y00096517D01*
X00823752Y00097145D01*
X00824495Y0009787D01*
X00824941Y00098692D01*
X0082509Y00099611D01*
Y00069941D01*
D02*
G37*
G36*
X0092Y00055D02*
X008641D01*
Y00135D01*
X0092D01*
Y00055D01*
D02*
G37*
D10*
X0035Y00182934D02*
Y00282934D01*
X002D02*
X0035D01*
X002Y00182934D02*
Y00282934D01*
Y00182934D02*
X0035D01*
X009Y0018D02*
Y0053D01*
X011D01*
X009Y0018D02*
X011D01*
X011D02*
Y0053D01*
X002Y00182939D02*
Y00282939D01*
Y00182939D02*
X0035D01*
Y00282944D01*
X003D02*
X0035D01*
X002D02*
X0035D01*
X0Y0D02*
Y007D01*
X015D01*
Y0D02*
Y007D01*
X0Y0D02*
X015D01*
D15*
X006277Y00348241D02*
D03*
X006123D02*
D03*
X006247Y00402D02*
D03*
X006093D02*
D03*
X009167Y00159D02*
D03*
X009013D02*
D03*
D16*
X00716Y002026D02*
D03*
Y00218D02*
D03*
X00717Y00153D02*
D03*
X00717Y001684D02*
D03*
X01375Y003023D02*
D03*
Y003177D02*
D03*
X01272Y002866D02*
D03*
X01272Y00302D02*
D03*
X00858Y005837D02*
D03*
Y005683D02*
D03*
Y00629D02*
D03*
Y006444D02*
D03*
X01365Y001627D02*
D03*
X01365Y001473D02*
D03*
D17*
X01305311Y0011352D02*
D03*
X01305311Y0017942D02*
D03*
X00782Y00574D02*
D03*
Y006399D02*
D03*
D18*
X0139225Y00251114D02*
D03*
X0145815D02*
D03*
X0123075Y00396886D02*
D03*
X0116485D02*
D03*
D19*
X0128Y00517D02*
D03*
Y00559D02*
D03*
X01325Y00518D02*
D03*
X01325Y0056D02*
D03*
X00912Y006015D02*
D03*
Y006435D02*
D03*
D20*
X00984475Y006351D02*
D03*
X00984475Y005909D02*
D03*
D21*
X01434Y00387D02*
D03*
D22*
X01331Y00353D02*
D03*
X01331Y0037D02*
D03*
Y00387D02*
D03*
Y00404D02*
D03*
Y00421D02*
D03*
D23*
X00869129Y00084776D02*
D03*
X00832062D02*
D03*
D24*
X01177Y0032556D02*
D03*
Y002D02*
D03*
Y00478D02*
D03*
Y0060356D02*
D03*
D25*
X01049224Y00636533D02*
D03*
X01049224Y00599467D02*
D03*
D47*
X01335Y00455D02*
X01345Y00465D01*
X0136Y0048D01*
X0145815Y00251114D02*
Y0028D01*
X0142045Y003177D02*
X0145815Y0028D01*
X01375Y003177D02*
X0142045D01*
X01323397Y00336603D02*
Y0035125D01*
Y00336603D02*
X013423Y003177D01*
X01375D01*
X01331Y00451D02*
X01335Y00455D01*
X01331Y00421D02*
Y00451D01*
X0134552Y0012807D02*
X0136475Y001473D01*
X01308111Y0012807D02*
X0134552D01*
X01076533Y00636533D02*
X01115Y00675D01*
X01049224Y00636533D02*
X01076533D01*
X0136Y0048D02*
Y0062D01*
X01305Y00675D02*
X0136Y0062D01*
X01115Y00675D02*
X01305D01*
X00990295Y00685D02*
X01038761Y00636533D01*
X006746Y00685D02*
X00990295D01*
X006216Y00632D02*
X006746Y00685D01*
D48*
X01305311Y0017942D02*
Y0019D01*
Y0016767D02*
X01307642Y0017D01*
X0084789Y0021266D02*
Y00216641D01*
Y0021266D02*
X009013Y0015925D01*
Y00159D02*
Y0015925D01*
X009167Y00159D02*
X00946D01*
X00977Y00128D01*
X010192D01*
X01177Y0032556D02*
X0119056D01*
X012162Y003512D02*
Y00394086D01*
X0119056Y0032556D02*
X012162Y003512D01*
X011Y00155D02*
X01122Y00177D01*
Y00365785D01*
X011531Y00396886D01*
X0116485D01*
X01125Y00155D02*
X01126215Y00156214D01*
X01458Y00250965D02*
X0145815Y00251114D01*
X01302511Y00128D02*
X01305311Y001252D01*
X0128Y00574D02*
Y005909D01*
Y00559D02*
Y00574D01*
X01338Y0028D02*
Y00299939D01*
X01297899Y00340039D02*
X01338Y00299939D01*
X01297899Y00340039D02*
Y00360388D01*
X01307511Y0037D02*
X01331D01*
X01297899Y00360388D02*
X01307511Y0037D01*
X01322Y00264D02*
X01338Y0028D01*
X0139225Y00251114D02*
X01392814Y00251678D01*
Y00284736D01*
X0137525Y003023D02*
X01392814Y00284736D01*
X01375Y003023D02*
X0137525D01*
X01325147Y00353D02*
X01331D01*
X01323397Y0035125D02*
X01325147Y00353D01*
X01322Y00239D02*
X01323397D01*
X01335511Y00251114D01*
X0139225D01*
X01255Y0025715D02*
Y0044D01*
X0127315Y00239D02*
X01322D01*
X01255Y0025715D02*
X0127315Y00239D01*
X01177Y002D02*
X0119062Y0021362D01*
X0123062Y0046438D02*
X01255Y0044D01*
X0119062Y0046438D02*
X0123062D01*
X01177Y00478D02*
X0119062Y0046438D01*
X012162Y00394086D02*
X01219Y00396886D01*
X0123075D01*
X0132075Y0028775D02*
X01322Y00289D01*
X0127315Y0028775D02*
X0132075D01*
X01272Y002866D02*
X0127315Y0028775D01*
X0129662Y0021362D02*
X01322Y00239D01*
X0119062Y0021362D02*
X0129662D01*
X01308111Y001928D02*
Y0019397D01*
X01305311Y0019D02*
X01308111Y001928D01*
X01305311Y0016767D02*
Y0017942D01*
X01305311Y001252D02*
Y0012527D01*
X0136475Y001473D02*
X01365D01*
X01305311Y0012527D02*
X01308111Y0012807D01*
X01305311Y0011352D02*
Y001252D01*
X013245Y005595D02*
X01325Y0056D01*
X0128Y00559D02*
X012805Y005595D01*
X009167Y0015875D02*
Y00159D01*
X01047952Y00598195D02*
X01049224Y00599467D01*
X0099177Y00598195D02*
X01047952D01*
X00984475Y005909D02*
X0099177Y00598195D01*
X0097718D02*
X00984475Y005909D01*
X00915305Y00598195D02*
X0097718D01*
X00912Y006015D02*
X00915305Y00598195D01*
X0089Y006215D02*
X00912Y006435D01*
X0089Y0058D02*
Y006215D01*
X008783Y005683D02*
X0089Y0058D01*
X00858Y005683D02*
X008783D01*
X00858Y005837D02*
Y00629D01*
X007848Y005837D02*
X00858D01*
X00782Y005809D02*
X007848Y005837D01*
X00782Y00574D02*
Y005809D01*
X01038761Y00636533D02*
X01049224D01*
X0051Y00482933D02*
X00512933D01*
X00845331Y0027D02*
X0084789Y00267441D01*
X0076825Y0027D02*
X00845331D01*
X0071625Y00218D02*
X0076825Y0027D01*
X00795Y00215D02*
X00795449D01*
X00716Y00218D02*
X0071625D01*
X00490441Y000798D02*
X00520024D01*
X00593224Y00153D01*
X00717D01*
X007165Y001689D02*
X00717Y001684D01*
X007165Y001689D02*
Y002021D01*
X00716Y002026D02*
X007165Y002021D01*
X008641Y00480743D02*
X0089Y00454842D01*
Y00327939D02*
Y00454842D01*
X00857061Y00295D02*
X0089Y00327939D01*
X00755Y00295D02*
X00857061D01*
X00701759Y00348241D02*
X00755Y00295D01*
X006277Y00348241D02*
X00701759D01*
X0051Y00322939D02*
X00557939D01*
X00583241Y00348241D01*
X006123D01*
X00825749Y0030989D02*
X008641Y00348241D01*
X0077011Y0030989D02*
X00825749D01*
X00678Y00402D02*
X0077011Y0030989D01*
X006247Y00402D02*
X00678D01*
X005728D02*
X006093D01*
X00553733Y00382933D02*
X005728Y00402D01*
X0051Y00382933D02*
X00553733D01*
X00348302Y006312D02*
X00348302Y006312D01*
D49*
X01125Y00155D02*
X01292642D01*
X011D02*
X01125D01*
X010462D02*
X011D01*
X0137525Y00165D02*
X01433D01*
X01455Y00187D01*
Y00235D01*
X0107Y00128D02*
X01302511D01*
X010192D02*
X010462Y00155D01*
X00977Y00035D02*
X0107Y00128D01*
X007444Y00035D02*
X00977D01*
X006988Y000806D02*
X007444Y00035D01*
X00795449Y00215D02*
X0084789Y00267441D01*
X00782Y00201551D02*
X00795449Y00215D01*
X00810224Y00084776D02*
X00832062D01*
X00782Y00113D02*
X00810224Y00084776D01*
X00782Y00113D02*
Y00201551D01*
X005708Y00632D02*
X006216D01*
X0052D02*
X005708D01*
X00348302Y006312D02*
X00399101D01*
X00225Y00632D02*
X002758D01*
X001742D02*
X00225D01*
X00648Y000806D02*
X006988D01*
X005972D02*
X00648D01*
X00439641Y000798D02*
X00490441D01*
X00439641Y000798D02*
X00439641Y000798D01*
X00439641D02*
X00439641Y000798D01*
X00361441Y000798D02*
X00439641D01*
X00310641D02*
X00361441D01*
X00232441D02*
X00310641D01*
X00181641D02*
X00232441D01*
D50*
X007008Y006444D02*
X00858D01*
X00952655Y00664D02*
X00981555Y006351D01*
X0087785Y00664D02*
X00952655D01*
X0085825Y006444D02*
X0087785Y00664D01*
X01122Y00617D02*
X011485Y006435D01*
X01005495Y00617D02*
X01122D01*
X00987395Y006351D02*
X01005495Y00617D01*
X012274Y006435D02*
X0128Y005909D01*
X011485Y006435D02*
X012274D01*
X00454Y00632D02*
X0052D01*
X00184944Y00362944D02*
X00454Y00632D01*
X0017Y00362944D02*
X00184944D01*
X00184716Y00282934D02*
X00499782Y00598D01*
X0017Y00282934D02*
X00184716D01*
X00499782Y00598D02*
X006544D01*
X007008Y006444D01*
X0137Y0036025D02*
Y0038D01*
X01363Y00387D02*
X0137Y0038D01*
X01331Y00387D02*
X01363D01*
X01331Y00353D02*
X0136275D01*
X0137Y0036025D01*
X0126198Y0052106D02*
X0127594D01*
X011931Y0058994D02*
X0126198Y0052106D01*
X01265Y00502D02*
X0128Y00517D01*
X01265Y00417949D02*
Y00502D01*
X01278949Y00404D02*
X01331D01*
X01265Y00417949D02*
X01278949Y00404D01*
X013245Y005175D02*
X01325Y00518D01*
X012805Y005175D02*
X013245D01*
X0128Y00517D02*
X012805Y005175D01*
X0127594Y0052106D02*
X0128Y00517D01*
X0117948Y0060356D02*
X011931Y0058994D01*
X01177Y0060356D02*
X0117948D01*
X01297Y00387D02*
X01331D01*
X01272Y00362D02*
X01297Y00387D01*
X01272Y00302D02*
Y00362D01*
X00984475Y006351D02*
X00987395D01*
X00981555D02*
X00984475D01*
X00858Y006444D02*
X0085825D01*
X00604Y00574D02*
X00782D01*
X00512933Y00482933D02*
X00604Y00574D01*
X00487948Y00502948D02*
X0051D01*
X00455Y0047D02*
X00487948Y00502948D01*
X00455Y00309D02*
Y0047D01*
Y00309D02*
X00481066Y00282934D01*
X0051D01*
Y00175D02*
Y00282934D01*
X00490441Y00155441D02*
X0051Y00175D01*
X00490441Y000798D02*
Y00155441D01*
D51*
X0051Y00502948D02*
D03*
Y00482933D02*
D03*
Y00462943D02*
D03*
Y00442954D02*
D03*
X0051Y00422938D02*
D03*
Y00402949D02*
D03*
X0051Y00382933D02*
D03*
Y00362944D02*
D03*
Y00342954D02*
D03*
Y00322939D02*
D03*
Y00302949D02*
D03*
X0017D02*
D03*
Y00322939D02*
D03*
Y00342954D02*
D03*
Y00362944D02*
D03*
Y00382933D02*
D03*
Y00402949D02*
D03*
Y00422938D02*
D03*
Y00442954D02*
D03*
Y00462943D02*
D03*
Y00482933D02*
D03*
Y00502948D02*
D03*
X01322Y00264D02*
D03*
Y00239D02*
D03*
Y00289D02*
D03*
D52*
X0051Y00282934D02*
D03*
X0017D02*
D03*
D53*
X010192Y00128D02*
D03*
X0107D02*
D03*
X006216Y00632D02*
D03*
X005708D02*
D03*
X0052D02*
D03*
X00348302Y006312D02*
D03*
X00399101Y006312D02*
D03*
X002758Y00632D02*
D03*
X00225D02*
D03*
X001742D02*
D03*
X0084789Y00216641D02*
D03*
Y00267441D02*
D03*
X006988Y000806D02*
D03*
X00648D02*
D03*
X005972D02*
D03*
X00181641Y000798D02*
D03*
X00232441D02*
D03*
X00310641D02*
D03*
X00361441D02*
D03*
X00439641Y000798D02*
D03*
X00490441Y000798D02*
D03*
D54*
X0142Y00087836D02*
D03*
Y00611836D02*
D03*
X0062Y00255D02*
D03*
Y00497954D02*
D03*
X00069012Y00087836D02*
D03*
Y00611836D02*
D03*
D55*
X01404506Y00114672D02*
D03*
X01435494D02*
D03*
X01450988Y00087836D02*
D03*
X01435494Y00060999D02*
D03*
X01404506D02*
D03*
X01389012Y00087836D02*
D03*
X01404506Y00638673D02*
D03*
X01435494D02*
D03*
X01450988Y00611836D02*
D03*
X01435494Y00585D02*
D03*
X01404506D02*
D03*
X01389012Y00611836D02*
D03*
X00604506Y00281836D02*
D03*
X00635494D02*
D03*
X00650988Y00255D02*
D03*
X00635494Y00228164D02*
D03*
X00604506D02*
D03*
X00589012Y00255D02*
D03*
X00604506Y0052479D02*
D03*
X00635494D02*
D03*
X00650988Y00497954D02*
D03*
X00635494Y00471117D02*
D03*
X00604506D02*
D03*
X00589012Y00497954D02*
D03*
X00053518Y00114672D02*
D03*
X00084506D02*
D03*
X001Y00087836D02*
D03*
X00084506Y00060999D02*
D03*
X00053518D02*
D03*
X00038024Y00087836D02*
D03*
X00053518Y00638673D02*
D03*
X00084506D02*
D03*
X001Y00611836D02*
D03*
X00084506Y00585D02*
D03*
X00053518D02*
D03*
X00038024Y00611836D02*
D03*
D56*
X007846Y00491942D02*
D03*
Y00337042D02*
D03*
D57*
X008641Y00480743D02*
D03*
Y00455343D02*
D03*
Y00373641D02*
D03*
Y00348241D02*
D03*
D58*
X007262Y00458942D02*
D03*
X007516Y00446242D02*
D03*
X007262Y00433542D02*
D03*
X007516Y00420842D02*
D03*
X007262Y00408142D02*
D03*
X007516Y00395442D02*
D03*
X007262Y00382742D02*
D03*
D59*
X007516Y00370042D02*
D03*
D60*
X008151Y00471642D02*
D03*
Y00357342D02*
D03*
D61*
X01475Y00235D02*
D03*
X01455D02*
D03*
X01435D02*
D03*
X01475Y00262D02*
D03*
X01435D02*
D03*
X0133525Y00165D02*
D03*
X0135525D02*
D03*
X0137525D02*
D03*
X0127D02*
D03*
X0129D02*
D03*
X0131D02*
D03*
X01335Y00185D02*
D03*
X01355D02*
D03*
X01375D02*
D03*
X0127D02*
D03*
X0129D02*
D03*
X0131D02*
D03*
X0132Y00574D02*
D03*
Y005909D02*
D03*
X0128Y00574D02*
D03*
X013D02*
D03*
X0128Y005909D02*
D03*
X013D02*
D03*
X0134Y0043D02*
D03*
Y0045D02*
D03*
Y0047D02*
D03*
X01315Y0043D02*
D03*
Y0045D02*
D03*
Y0047D02*
D03*
X01295Y0043D02*
D03*
Y0045D02*
D03*
Y0047D02*
D03*
X0118Y00322939D02*
D03*
X012D02*
D03*
X0116D02*
D03*
X012Y003D02*
D03*
X0118D02*
D03*
X0116D02*
D03*
X0091Y00125D02*
D03*
Y0011D02*
D03*
Y000798D02*
D03*
Y00065D02*
D03*
X0089D02*
D03*
Y000798D02*
D03*
Y00095D02*
D03*
Y0011D02*
D03*
Y00125D02*
D03*
M02*
