G04*
G04 #@! TF.GenerationSoftware,Altium Limited,Altium Designer,19.0.4 (130)*
G04*
G04 Layer_Color=255*
%FSTAX44Y44*%
%MOMM*%
G71*
G01*
G75*
%ADD10C,0.2540*%
%ADD15R,0.9300X0.9800*%
%ADD16R,0.9800X0.9300*%
%ADD17R,1.2600X3.6100*%
%ADD18R,3.6100X1.2600*%
%ADD19R,2.0000X2.0000*%
%ADD20R,2.7430X2.1590*%
%ADD21R,8.4000X10.6500*%
%ADD22R,3.8000X1.0500*%
%ADD23R,1.4067X3.4992*%
%ADD24R,3.9200X3.4240*%
%ADD25R,3.4992X1.4067*%
%ADD51C,1.5240*%
%ADD52R,1.5240X1.5240*%
%ADD53C,2.2000*%
%ADD54C,8.8900*%
%ADD55C,0.8890*%
%ADD56C,2.5000*%
%ADD57C,1.8000*%
%ADD58C,1.6000*%
%ADD59R,1.6000X1.6000*%
%ADD60C,3.3000*%
D10*
X0035Y00182934D02*
Y00282934D01*
X002D02*
X0035D01*
X002Y00182934D02*
Y00282934D01*
Y00182934D02*
X0035D01*
X009Y0018D02*
Y0053D01*
X011D01*
X009Y0018D02*
X011D01*
X011D02*
Y0053D01*
X002Y00182939D02*
Y00282939D01*
Y00182939D02*
X0035D01*
Y00282944D01*
X003D02*
X0035D01*
X002D02*
X0035D01*
X0Y0D02*
Y007D01*
X015D01*
Y0D02*
Y007D01*
X0Y0D02*
X015D01*
D15*
X006277Y00348241D02*
D03*
X006123D02*
D03*
X006247Y00402D02*
D03*
X006093D02*
D03*
X009167Y00159D02*
D03*
X009013D02*
D03*
D16*
X00716Y002026D02*
D03*
Y00218D02*
D03*
X00717Y00153D02*
D03*
X00717Y001684D02*
D03*
X01375Y003023D02*
D03*
Y003177D02*
D03*
X01272Y002866D02*
D03*
X01272Y00302D02*
D03*
X00858Y005837D02*
D03*
Y005683D02*
D03*
Y00629D02*
D03*
Y006444D02*
D03*
X01365Y001627D02*
D03*
X01365Y001473D02*
D03*
D17*
X01305311Y0011352D02*
D03*
X01305311Y0017942D02*
D03*
X00782Y00574D02*
D03*
Y006399D02*
D03*
D18*
X0139225Y00251114D02*
D03*
X0145815D02*
D03*
X0123075Y00396886D02*
D03*
X0116485D02*
D03*
D19*
X0128Y00517D02*
D03*
Y00559D02*
D03*
X01325Y00518D02*
D03*
X01325Y0056D02*
D03*
X00912Y006015D02*
D03*
Y006435D02*
D03*
D20*
X00984475Y006351D02*
D03*
X00984475Y005909D02*
D03*
D21*
X01434Y00387D02*
D03*
D22*
X01331Y00353D02*
D03*
X01331Y0037D02*
D03*
Y00387D02*
D03*
Y00404D02*
D03*
Y00421D02*
D03*
D23*
X00869129Y00084776D02*
D03*
X00832062D02*
D03*
D24*
X01177Y0032556D02*
D03*
Y002D02*
D03*
Y00478D02*
D03*
Y0060356D02*
D03*
D25*
X01049224Y00636533D02*
D03*
X01049224Y00599467D02*
D03*
D51*
X0051Y00502948D02*
D03*
Y00482933D02*
D03*
Y00462943D02*
D03*
Y00442954D02*
D03*
X0051Y00422938D02*
D03*
Y00402949D02*
D03*
X0051Y00382933D02*
D03*
Y00362944D02*
D03*
Y00342954D02*
D03*
Y00322939D02*
D03*
Y00302949D02*
D03*
X0017D02*
D03*
Y00322939D02*
D03*
Y00342954D02*
D03*
Y00362944D02*
D03*
Y00382933D02*
D03*
Y00402949D02*
D03*
Y00422938D02*
D03*
Y00442954D02*
D03*
Y00462943D02*
D03*
Y00482933D02*
D03*
Y00502948D02*
D03*
X01322Y00264D02*
D03*
Y00239D02*
D03*
Y00289D02*
D03*
D52*
X0051Y00282934D02*
D03*
X0017D02*
D03*
D53*
X010192Y00128D02*
D03*
X0107D02*
D03*
X006216Y00632D02*
D03*
X005708D02*
D03*
X0052D02*
D03*
X00348302Y006312D02*
D03*
X00399101Y006312D02*
D03*
X002758Y00632D02*
D03*
X00225D02*
D03*
X001742D02*
D03*
X0084789Y00216641D02*
D03*
Y00267441D02*
D03*
X006988Y000806D02*
D03*
X00648D02*
D03*
X005972D02*
D03*
X00181641Y000798D02*
D03*
X00232441D02*
D03*
X00310641D02*
D03*
X00361441D02*
D03*
X00439641Y000798D02*
D03*
X00490441Y000798D02*
D03*
D54*
X0142Y00087836D02*
D03*
Y00611836D02*
D03*
X0062Y00255D02*
D03*
Y00497954D02*
D03*
X00069012Y00087836D02*
D03*
Y00611836D02*
D03*
D55*
X01404506Y00114672D02*
D03*
X01435494D02*
D03*
X01450988Y00087836D02*
D03*
X01435494Y00060999D02*
D03*
X01404506D02*
D03*
X01389012Y00087836D02*
D03*
X01404506Y00638673D02*
D03*
X01435494D02*
D03*
X01450988Y00611836D02*
D03*
X01435494Y00585D02*
D03*
X01404506D02*
D03*
X01389012Y00611836D02*
D03*
X00604506Y00281836D02*
D03*
X00635494D02*
D03*
X00650988Y00255D02*
D03*
X00635494Y00228164D02*
D03*
X00604506D02*
D03*
X00589012Y00255D02*
D03*
X00604506Y0052479D02*
D03*
X00635494D02*
D03*
X00650988Y00497954D02*
D03*
X00635494Y00471117D02*
D03*
X00604506D02*
D03*
X00589012Y00497954D02*
D03*
X00053518Y00114672D02*
D03*
X00084506D02*
D03*
X001Y00087836D02*
D03*
X00084506Y00060999D02*
D03*
X00053518D02*
D03*
X00038024Y00087836D02*
D03*
X00053518Y00638673D02*
D03*
X00084506D02*
D03*
X001Y00611836D02*
D03*
X00084506Y00585D02*
D03*
X00053518D02*
D03*
X00038024Y00611836D02*
D03*
D56*
X007846Y00491942D02*
D03*
Y00337042D02*
D03*
D57*
X008641Y00480743D02*
D03*
Y00455343D02*
D03*
Y00373641D02*
D03*
Y00348241D02*
D03*
D58*
X007262Y00458942D02*
D03*
X007516Y00446242D02*
D03*
X007262Y00433542D02*
D03*
X007516Y00420842D02*
D03*
X007262Y00408142D02*
D03*
X007516Y00395442D02*
D03*
X007262Y00382742D02*
D03*
D59*
X007516Y00370042D02*
D03*
D60*
X008151Y00471642D02*
D03*
Y00357342D02*
D03*
M02*
