G04*
G04 #@! TF.GenerationSoftware,Altium Limited,Altium Designer,19.0.4 (130)*
G04*
G04 Layer_Physical_Order=2*
G04 Layer_Color=16711680*
%FSTAX44Y44*%
%MOMM*%
G71*
G01*
G75*
%ADD10C,0.2540*%
%ADD48C,0.7000*%
%ADD49C,2.0000*%
%ADD50C,1.0000*%
%ADD51C,1.5240*%
%ADD52R,1.5240X1.5240*%
%ADD53C,2.2000*%
%ADD54C,8.8900*%
%ADD55C,0.8890*%
%ADD56C,2.5000*%
%ADD57C,1.8000*%
%ADD58C,1.6000*%
%ADD59R,1.6000X1.6000*%
%ADD60C,3.3000*%
%ADD61C,1.0000*%
%ADD62C,1.4000*%
G36*
X00407176Y00623587D02*
X00405961Y0062159D01*
X00405468Y00620602D01*
X0040505Y00619619D01*
X00404709Y00618643D01*
X00404443Y00617673D01*
X00404253Y0061671D01*
X00404139Y00615753D01*
X00404101Y00614802D01*
X00394101D01*
X00394063Y00615753D01*
X0039395Y0061671D01*
X0039376Y00617673D01*
X00393494Y00618643D01*
X00393153Y00619619D01*
X00392735Y00620602D01*
X00392242Y0062159D01*
X00391672Y00622585D01*
X00391027Y00623587D01*
X00390306Y00624594D01*
X00407897D01*
X00407176Y00623587D01*
D02*
G37*
G36*
X01335Y0055D02*
X0127D01*
Y006D01*
X01335D01*
Y0055D01*
D02*
G37*
G36*
X00505424Y00496855D02*
X00505105Y00497063D01*
X00504729Y00497249D01*
X00504296Y00497413D01*
X00503806Y00497555D01*
X0050326Y00497675D01*
X00502657Y00497774D01*
X00501281Y00497905D01*
X00500508Y00497938D01*
X00499678Y00497948D01*
Y00507948D01*
X00500508Y00507959D01*
X00502657Y00508123D01*
X0050326Y00508222D01*
X00503806Y00508342D01*
X00504296Y00508484D01*
X00504729Y00508648D01*
X00505105Y00508834D01*
X00505424Y00509042D01*
Y00496855D01*
D02*
G37*
G36*
X00515265Y00468544D02*
X00516635Y00467714D01*
X00517316Y00467377D01*
X00517994Y00467092D01*
X00518669Y00466858D01*
X00519341Y00466677D01*
X0052001Y00466547D01*
X00520677Y00466469D01*
X00521341Y00466443D01*
Y00459444D01*
X00520677Y00459417D01*
X0052001Y0045934D01*
X00519341Y0045921D01*
X00518669Y00459029D01*
X00517994Y00458795D01*
X00517316Y0045851D01*
X00516635Y00458173D01*
X00515951Y00457784D01*
X00515265Y00457343D01*
X00514576Y0045685D01*
Y00469037D01*
X00515265Y00468544D01*
D02*
G37*
G36*
X00871259Y00449835D02*
X00871226Y00449628D01*
X00871196Y0044932D01*
X00871131Y00447778D01*
X008711Y00444286D01*
X008571D01*
X00856903Y00449938D01*
X00871296D01*
X00871259Y00449835D01*
D02*
G37*
G36*
X00515265Y00448554D02*
X00516635Y00447724D01*
X00517316Y00447387D01*
X00517994Y00447102D01*
X00518669Y00446869D01*
X00519341Y00446687D01*
X0052001Y00446557D01*
X00520677Y0044648D01*
X00521341Y00446454D01*
Y00439454D01*
X00520677Y00439428D01*
X0052001Y0043935D01*
X00519341Y0043922D01*
X00518669Y00439039D01*
X00517994Y00438805D01*
X00517316Y0043852D01*
X00516635Y00438183D01*
X00515951Y00437794D01*
X00515265Y00437353D01*
X00514576Y00436861D01*
Y00449047D01*
X00515265Y00448554D01*
D02*
G37*
G36*
X00720314Y00428124D02*
X00719688Y00428765D01*
X00719053Y00429339D01*
X0071841Y00429846D01*
X00717758Y00430285D01*
X00717098Y00430656D01*
X00716429Y0043096D01*
X00715751Y00431196D01*
X00715064Y00431365D01*
X00714369Y00431466D01*
X00713665Y004315D01*
X00715121Y004385D01*
X0071586Y0043852D01*
X00716591Y00438578D01*
X00717314Y00438675D01*
X00718029Y00438811D01*
X00718737Y00438987D01*
X00719437Y00439201D01*
X00720129Y00439454D01*
X00720813Y00439745D01*
X00722158Y00440446D01*
X00720314Y00428124D01*
D02*
G37*
G36*
X00515265Y00428539D02*
X00516635Y00427709D01*
X00517316Y00427372D01*
X00517994Y00427087D01*
X00518669Y00426853D01*
X00519341Y00426672D01*
X0052001Y00426542D01*
X00520677Y00426464D01*
X00521341Y00426438D01*
Y00419439D01*
X00520677Y00419413D01*
X0052001Y00419335D01*
X00519341Y00419205D01*
X00518669Y00419024D01*
X00517994Y0041879D01*
X00517316Y00418505D01*
X00516635Y00418168D01*
X00515951Y00417779D01*
X00515265Y00417338D01*
X00514576Y00416845D01*
Y00429032D01*
X00515265Y00428539D01*
D02*
G37*
G36*
X0136Y00415D02*
X0128D01*
Y00482933D01*
X0136D01*
Y00415D01*
D02*
G37*
G36*
X00755416Y00402473D02*
X0074432Y00398759D01*
X00744596Y00399454D01*
X00744786Y00400135D01*
X00744887Y004008D01*
X00744902Y0040145D01*
X00744829Y00402085D01*
X00744668Y00402706D01*
X00744421Y00403312D01*
X00744086Y00403902D01*
X00743663Y00404478D01*
X00743153Y00405039D01*
X00748967Y00409125D01*
X00755416Y00402473D01*
D02*
G37*
G36*
X00515265Y00408549D02*
X00516635Y00407719D01*
X00517316Y00407382D01*
X00517994Y00407097D01*
X00518669Y00406864D01*
X00519341Y00406682D01*
X0052001Y00406552D01*
X00520677Y00406475D01*
X00521341Y00406449D01*
Y00399449D01*
X00520677Y00399423D01*
X0052001Y00399345D01*
X00519341Y00399215D01*
X00518669Y00399034D01*
X00517994Y003988D01*
X00517316Y00398515D01*
X00516635Y00398178D01*
X00515951Y00397789D01*
X00515265Y00397348D01*
X00514576Y00396856D01*
Y00409042D01*
X00515265Y00408549D01*
D02*
G37*
G36*
X00871296Y00379046D02*
X00856903D01*
X00856941Y00379149D01*
X00856974Y00379356D01*
X00857003Y00379664D01*
X00857068Y00381206D01*
X008571Y00384698D01*
X008711D01*
X00871296Y00379046D01*
D02*
G37*
G36*
X00721396Y00376345D02*
X0072063Y00376895D01*
X00719129Y00377822D01*
X00718394Y00378199D01*
X0071767Y00378518D01*
X00716956Y00378778D01*
X00716253Y00378981D01*
X0071556Y00379126D01*
X00714878Y00379213D01*
X00714206Y00379242D01*
Y00386242D01*
X00714878Y00386271D01*
X0071556Y00386358D01*
X00716253Y00386503D01*
X00716956Y00386706D01*
X0071767Y00386966D01*
X00718394Y00387285D01*
X00719129Y00387662D01*
X00719874Y00388096D01*
X00721396Y00389139D01*
Y00376345D01*
D02*
G37*
G36*
X00743661Y00363042D02*
X00743591Y00363707D01*
X0074338Y00364302D01*
X00743029Y00364827D01*
X00742536Y00365282D01*
X00741904Y00365667D01*
X0074113Y00365982D01*
X00740216Y00366227D01*
X00739162Y00366402D01*
X00737967Y00366507D01*
X00736631Y00366542D01*
Y00373542D01*
X00737967Y00373577D01*
X00739162Y00373682D01*
X00740216Y00373857D01*
X0074113Y00374102D01*
X00741904Y00374417D01*
X00742536Y00374802D01*
X00743029Y00375257D01*
X0074338Y00375782D01*
X00743591Y00376377D01*
X00743661Y00377042D01*
Y00363042D01*
D02*
G37*
G36*
X00873057Y00374809D02*
X00873179Y00374639D01*
X00873377Y003744D01*
X00874421Y00373264D01*
X00876868Y00370773D01*
X00866968Y00360873D01*
X00862832Y00364731D01*
X0087301Y00374908D01*
X00873057Y00374809D01*
D02*
G37*
G36*
X00515265Y00308549D02*
X00516635Y00307719D01*
X00517316Y00307382D01*
X00517994Y00307097D01*
X00518669Y00306864D01*
X00519341Y00306682D01*
X0052001Y00306553D01*
X00520677Y00306475D01*
X00521341Y00306449D01*
Y00299449D01*
X00520677Y00299423D01*
X0052001Y00299345D01*
X00519341Y00299216D01*
X00518669Y00299034D01*
X00517994Y00298801D01*
X00517316Y00298515D01*
X00516635Y00298178D01*
X00515951Y00297789D01*
X00515265Y00297348D01*
X00514576Y00296856D01*
Y00309042D01*
X00515265Y00308549D01*
D02*
G37*
G36*
X0121Y00282934D02*
X0115D01*
Y00342954D01*
X0121D01*
Y00282934D01*
D02*
G37*
G36*
X0070804Y0028176D02*
X0070992Y002827D01*
X0071246D01*
Y002573D01*
X0070738Y0025857D01*
X0070103Y0026492D01*
X00700936Y00265487D01*
X00699106Y00265896D01*
X00698282Y00272885D01*
X00699913Y00272847D01*
X00702174Y00277367D01*
X00700918Y00278725D01*
X00706705Y0028273D01*
X0070804Y0028176D01*
D02*
G37*
G36*
X0072516Y0028016D02*
X00727581Y00277739D01*
X0072909Y00277859D01*
X00731938Y00271423D01*
X00729961Y00270864D01*
X00729183Y002662D01*
X00731141Y00265066D01*
X00726792Y00259533D01*
X00724399Y00260349D01*
X0072262Y0025857D01*
X0071754Y002573D01*
Y002827D01*
X0072008D01*
X0072516Y0028016D01*
D02*
G37*
G36*
X00840533Y00259263D02*
X00839302Y00260338D01*
X00835923Y00262884D01*
X00834902Y00263506D01*
X00833933Y00264015D01*
X00833017Y00264411D01*
X00832153Y00264694D01*
X00831341Y00264863D01*
X00830583Y0026492D01*
X00831243Y0027192D01*
X00831986Y00271967D01*
X00832798Y00272107D01*
X00833679Y0027234D01*
X0083463Y00272667D01*
X00835649Y00273088D01*
X00837896Y00274209D01*
X00839123Y00274909D01*
X00841784Y00276591D01*
X00840533Y00259263D01*
D02*
G37*
G36*
X01483Y00224D02*
X01427D01*
Y00273D01*
X01483D01*
Y00224D01*
D02*
G37*
G36*
X00872032Y00230883D02*
X00862437Y00221217D01*
X00860684Y00219129D01*
X00860172Y00218389D01*
X00859739Y00217676D01*
X00859382Y0021699D01*
X00859104Y0021633D01*
X00858903Y00215698D01*
X0085878Y00215092D01*
X00846341Y00227532D01*
X00846947Y00227655D01*
X00847579Y00227855D01*
X00848239Y00228134D01*
X00848925Y0022849D01*
X00849638Y00228924D01*
X00850378Y00229435D01*
X00851939Y00230691D01*
X00852706Y00231387D01*
X00862132Y00240783D01*
X00872032Y00230883D01*
D02*
G37*
G36*
X01389605Y0019401D02*
Y00165422D01*
X01380819Y00156637D01*
X01355593D01*
X01344378Y00145422D01*
X01265593D01*
X01255593Y00156637D01*
Y00193222D01*
X01265393Y00203022D01*
X01380593D01*
X01389605Y0019401D01*
D02*
G37*
G36*
X0092Y00055D02*
X008641D01*
Y00135D01*
X0092D01*
Y00055D01*
D02*
G37*
D10*
X0071754Y002573D02*
G03*
X00730141Y0026842I0J000127D01*
G01*
D02*
G03*
X0071754Y002827I-00012601J0000158D01*
G01*
X0071246D02*
G03*
X00700885Y00275225I0J-000127D01*
G01*
D02*
G03*
X0071246Y002573I00011575J-00005225D01*
G01*
X0071754D02*
Y002827D01*
X0071246Y002573D02*
Y002827D01*
X0035Y00182934D02*
Y00282934D01*
X002D02*
X0035D01*
X002Y00182934D02*
Y00282934D01*
Y00182934D02*
X0035D01*
X009Y0018D02*
Y0053D01*
X011D01*
X009Y0018D02*
X011D01*
X011D02*
Y0053D01*
X002Y00182939D02*
Y00282939D01*
Y00182939D02*
X0035D01*
Y00282944D01*
X003D02*
X0035D01*
X002D02*
X0035D01*
X0Y0D02*
Y007D01*
X015D01*
Y0D02*
Y007D01*
X0Y0D02*
X015D01*
D48*
X01335Y00185D02*
X0134D01*
X01307D02*
X01335D01*
X00730141Y0026842D02*
X00846911D01*
X00726282D02*
X00730141D01*
X0072389Y0027D02*
X00724702D01*
X00726282Y0026842D01*
X00846911D02*
X0084789Y00267441D01*
X00700885Y00275225D02*
X0070611Y0027D01*
X0065611Y0032D02*
X00700885Y00275225D01*
X005858Y0032D02*
X0065611D01*
X00568749Y00302949D02*
X005858Y0032D01*
X0051Y00302949D02*
X00568749D01*
X00597158Y00370042D02*
X007516D01*
X00564251Y00402949D02*
X00597158Y00370042D01*
X0051Y00402949D02*
X00564251D01*
X00604845Y00382742D02*
X007262D01*
X00564648Y00422938D02*
X00604845Y00382742D01*
X0051Y00422938D02*
X00564648D01*
X007516Y00395442D02*
Y00401542D01*
X007323Y00420842D02*
X007516Y00401542D01*
X00594158Y00420842D02*
X007323D01*
X00572046Y00442954D02*
X00594158Y00420842D01*
X0051Y00442954D02*
X00572046D01*
X00724742Y00435D02*
X007262Y00433542D01*
X00607587Y00435D02*
X00724742D01*
X00579643Y00462943D02*
X00607587Y00435D01*
X0051Y00462943D02*
X00579643D01*
D49*
X01305Y0056D02*
X0135D01*
X00776249Y00145D02*
X0084789Y00216641D01*
X00585Y00145D02*
X00776249D01*
X00890574Y00094426D02*
X01099426D01*
X01375Y00185D02*
X0139Y002D01*
Y0052D01*
X0135Y0056D02*
X0139Y0052D01*
X01125Y00183D02*
Y00385D01*
X0107Y00128D02*
X01125Y00183D01*
Y00385D02*
X01162939Y00422938D01*
X01285D01*
X01099426Y00094426D02*
X01175Y0017D01*
Y00282934D01*
X0089Y00095D02*
X00890574Y00094426D01*
X005198Y000798D02*
X00585Y00145D01*
X00490441Y000798D02*
X005198D01*
X00760449Y0018D02*
X0084789Y00267441D01*
X0053Y0018D02*
X00760449D01*
X002758Y004342D02*
X0053Y0018D01*
X002758Y004342D02*
Y00632D01*
D50*
X00472052Y00502948D02*
X0051D01*
X00399101Y00575899D02*
X00472052Y00502948D01*
X00399101Y00575899D02*
Y006312D01*
D51*
X0051Y00502948D02*
D03*
Y00482933D02*
D03*
Y00462943D02*
D03*
Y00442954D02*
D03*
X0051Y00422938D02*
D03*
Y00402949D02*
D03*
X0051Y00382933D02*
D03*
Y00362944D02*
D03*
Y00342954D02*
D03*
Y00322939D02*
D03*
Y00302949D02*
D03*
X0017D02*
D03*
Y00322939D02*
D03*
Y00342954D02*
D03*
Y00362944D02*
D03*
Y00382933D02*
D03*
Y00402949D02*
D03*
Y00422938D02*
D03*
Y00442954D02*
D03*
Y00462943D02*
D03*
Y00482933D02*
D03*
Y00502948D02*
D03*
X01322Y00264D02*
D03*
Y00239D02*
D03*
Y00289D02*
D03*
D52*
X0051Y00282934D02*
D03*
X0017D02*
D03*
D53*
X010192Y00128D02*
D03*
X0107D02*
D03*
X006216Y00632D02*
D03*
X005708D02*
D03*
X0052D02*
D03*
X00348302Y006312D02*
D03*
X00399101Y006312D02*
D03*
X002758Y00632D02*
D03*
X00225D02*
D03*
X001742D02*
D03*
X0084789Y00216641D02*
D03*
Y00267441D02*
D03*
X006988Y000806D02*
D03*
X00648D02*
D03*
X005972D02*
D03*
X00181641Y000798D02*
D03*
X00232441D02*
D03*
X00310641D02*
D03*
X00361441D02*
D03*
X00439641Y000798D02*
D03*
X00490441Y000798D02*
D03*
D54*
X0142Y00087836D02*
D03*
Y00611836D02*
D03*
X0062Y00255D02*
D03*
Y00497954D02*
D03*
X00069012Y00087836D02*
D03*
Y00611836D02*
D03*
D55*
X01404506Y00114672D02*
D03*
X01435494D02*
D03*
X01450988Y00087836D02*
D03*
X01435494Y00060999D02*
D03*
X01404506D02*
D03*
X01389012Y00087836D02*
D03*
X01404506Y00638673D02*
D03*
X01435494D02*
D03*
X01450988Y00611836D02*
D03*
X01435494Y00585D02*
D03*
X01404506D02*
D03*
X01389012Y00611836D02*
D03*
X00604506Y00281836D02*
D03*
X00635494D02*
D03*
X00650988Y00255D02*
D03*
X00635494Y00228164D02*
D03*
X00604506D02*
D03*
X00589012Y00255D02*
D03*
X00604506Y0052479D02*
D03*
X00635494D02*
D03*
X00650988Y00497954D02*
D03*
X00635494Y00471117D02*
D03*
X00604506D02*
D03*
X00589012Y00497954D02*
D03*
X00053518Y00114672D02*
D03*
X00084506D02*
D03*
X001Y00087836D02*
D03*
X00084506Y00060999D02*
D03*
X00053518D02*
D03*
X00038024Y00087836D02*
D03*
X00053518Y00638673D02*
D03*
X00084506D02*
D03*
X001Y00611836D02*
D03*
X00084506Y00585D02*
D03*
X00053518D02*
D03*
X00038024Y00611836D02*
D03*
D56*
X007846Y00491942D02*
D03*
Y00337042D02*
D03*
D57*
X008641Y00480743D02*
D03*
Y00455343D02*
D03*
Y00373641D02*
D03*
Y00348241D02*
D03*
D58*
X007262Y00458942D02*
D03*
X007516Y00446242D02*
D03*
X007262Y00433542D02*
D03*
X007516Y00420842D02*
D03*
X007262Y00408142D02*
D03*
X007516Y00395442D02*
D03*
X007262Y00382742D02*
D03*
D59*
X007516Y00370042D02*
D03*
D60*
X008151Y00471642D02*
D03*
Y00357342D02*
D03*
D61*
X0070611Y0027D02*
D03*
X0072389D02*
D03*
X01475Y00235D02*
D03*
X01455D02*
D03*
X01435D02*
D03*
X01475Y00262D02*
D03*
X01435D02*
D03*
X0133525Y00165D02*
D03*
X0135525D02*
D03*
X0137525D02*
D03*
X0127D02*
D03*
X0129D02*
D03*
X0131D02*
D03*
X01335Y00185D02*
D03*
X01355D02*
D03*
X01375D02*
D03*
X0127D02*
D03*
X0129D02*
D03*
X0131D02*
D03*
X0132Y00574D02*
D03*
Y005909D02*
D03*
X0128Y00574D02*
D03*
X013D02*
D03*
X0128Y005909D02*
D03*
X013D02*
D03*
X0134Y0043D02*
D03*
Y0045D02*
D03*
Y0047D02*
D03*
X01315Y0043D02*
D03*
Y0045D02*
D03*
Y0047D02*
D03*
X01295Y0043D02*
D03*
Y0045D02*
D03*
Y0047D02*
D03*
X0118Y00322939D02*
D03*
X012D02*
D03*
X0116D02*
D03*
X012Y003D02*
D03*
X0118D02*
D03*
X0116D02*
D03*
X0091Y00125D02*
D03*
Y0011D02*
D03*
Y000798D02*
D03*
Y00065D02*
D03*
X0089D02*
D03*
Y000798D02*
D03*
Y00095D02*
D03*
Y0011D02*
D03*
Y00125D02*
D03*
D62*
X008641Y00373641D02*
X00885Y00352741D01*
Y00253751D02*
Y00352741D01*
X0084789Y00216641D02*
X00885Y00253751D01*
X008641Y00373641D02*
Y00455343D01*
M02*
