G04*
G04 #@! TF.GenerationSoftware,Altium Limited,Altium Designer,19.0.4 (130)*
G04*
G04 Layer_Color=32768*
%FSTAX44Y44*%
%MOMM*%
G71*
G01*
G75*
%ADD10C,0.2540*%
%ADD64C,0.0025*%
%ADD65C,0.2032*%
G36*
X00783245Y0064571D02*
Y0063575D01*
X00780755D01*
Y0064571D01*
X00783245Y0064571D01*
D02*
G37*
G36*
X00783245Y00574415D02*
X007903D01*
Y00571925D01*
X00783245D01*
Y0056819D01*
X00780755Y0056819D01*
Y00571925D01*
X007737D01*
X007737Y00574415D01*
X00780755D01*
Y0057815D01*
X00783245D01*
Y00574415D01*
D02*
G37*
G36*
X01169Y00395641D02*
X0115904Y00395641D01*
X0115904Y00398131D01*
X01169Y00398131D01*
Y00395641D01*
D02*
G37*
G36*
X01232825Y00398131D02*
X0123656D01*
Y00395641D01*
X01232825D01*
Y00388586D01*
X01230335Y00388586D01*
Y00395641D01*
X012266D01*
Y00398131D01*
X01230335D01*
Y00405186D01*
X01232825D01*
Y00398131D01*
D02*
G37*
G36*
X01306556Y00113935D02*
X01313611D01*
Y00111445D01*
X01306556D01*
Y0010771D01*
X01304066D01*
Y00111445D01*
X01297011D01*
X01297011Y00113935D01*
X01304066D01*
Y0011767D01*
X01306556D01*
Y00113935D01*
D02*
G37*
G36*
X01304066Y0018523D02*
X01306556D01*
Y0017527D01*
X01304066D01*
Y0018523D01*
D02*
G37*
G36*
X01392665Y00252359D02*
X013964D01*
Y00249869D01*
X01392665D01*
Y00242814D01*
X01390175D01*
Y00249869D01*
X0138644D01*
X0138644Y00252359D01*
X01390175D01*
Y00259414D01*
X01392665D01*
Y00252359D01*
D02*
G37*
G36*
X0146396D02*
X0146396Y00249869D01*
X01454D01*
Y00252359D01*
X0146396Y00252359D01*
D02*
G37*
D10*
X0035Y00182934D02*
Y00282934D01*
X002D02*
X0035D01*
X002Y00182934D02*
Y00282934D01*
Y00182934D02*
X0035D01*
X009Y0018D02*
Y0053D01*
X011D01*
X009Y0018D02*
X011D01*
X011D02*
Y0053D01*
X002Y00182939D02*
Y00282939D01*
Y00182939D02*
X0035D01*
Y00282944D01*
X003D02*
X0035D01*
X002D02*
X0035D01*
X0Y0D02*
Y007D01*
X015D01*
Y0D02*
Y007D01*
X0Y0D02*
X015D01*
D64*
X00505033Y00393045D02*
X00505541Y00392537D01*
X00165033Y00393045D02*
X00165541Y00392537D01*
X01042232Y00132294D02*
X01042739Y00132802D01*
X00567632Y00627854D02*
X0056814Y00628362D01*
X00371333Y00635494D02*
X00371841Y00636002D01*
X00221832Y00627854D02*
X0022234Y00628362D01*
X01321996Y0025985D02*
X01322504Y00260358D01*
X00850341Y00080506D02*
X00850849Y00081014D01*
X01180882Y00263034D02*
X01181389Y00262526D01*
X0117261Y00541034D02*
X01173119Y00540526D01*
X00852183Y0024441D02*
X00852691Y00243902D01*
X01052986Y00618254D02*
X01053493Y00617746D01*
X00807346Y00414746D02*
X00807854Y00414238D01*
X0065066Y00084239D02*
X00651168Y00084747D01*
X00208902Y00074999D02*
X0020941Y00075507D01*
X00337902Y00074999D02*
X0033841Y00075507D01*
X00466902Y00074999D02*
X0046741Y00075507D01*
D65*
X00711Y002323D02*
X00721D01*
X00711Y001873D02*
X00721D01*
X00716Y001823D02*
Y001923D01*
X01275Y00503D02*
X01285D01*
X01275Y00577D02*
X01285Y00577D01*
X0128Y00572D02*
Y00582D01*
X0132Y00504D02*
X0133D01*
X0132Y00578D02*
X0133Y00578D01*
X01325Y00573D02*
X01325Y00583D01*
X00912Y005785D02*
Y005885D01*
X00907Y005835D02*
X00917D01*
X00907Y006575D02*
X00917D01*
M02*
