G04*
G04 #@! TF.GenerationSoftware,Altium Limited,Altium Designer,19.0.4 (130)*
G04*
G04 Layer_Color=128*
%FSTAX44Y44*%
%MOMM*%
G71*
G01*
G75*
%ADD10C,0.2540*%
%ADD66C,0.0508*%
D10*
X0035Y00182934D02*
Y00282934D01*
X002D02*
X0035D01*
X002Y00182934D02*
Y00282934D01*
Y00182934D02*
X0035D01*
X009Y0018D02*
Y0053D01*
X011D01*
X009Y0018D02*
X011D01*
X011D02*
Y0053D01*
X002Y00182939D02*
Y00282939D01*
Y00182939D02*
X0035D01*
Y00282944D01*
X003D02*
X0035D01*
X002D02*
X0035D01*
X0Y0D02*
Y007D01*
X015D01*
Y0D02*
Y007D01*
X0Y0D02*
X015D01*
D66*
X005055Y00502948D02*
X005145D01*
X0051Y00498448D02*
Y00507449D01*
X005055Y00482933D02*
X005145D01*
X0051Y00478433D02*
Y00487433D01*
X005055Y00462943D02*
X005145D01*
X0051Y00458443D02*
Y00467444D01*
X005055Y00442954D02*
X005145D01*
X0051Y00438454D02*
Y00447454D01*
X005055Y00422938D02*
X005145D01*
X0051Y00418438D02*
Y00427439D01*
X005055Y00402949D02*
X005145D01*
X0051Y00398449D02*
Y00407449D01*
X005055Y00382933D02*
X005145D01*
X0051Y00378433D02*
Y00387434D01*
X005055Y00362944D02*
X005145D01*
X0051Y00358443D02*
Y00367444D01*
X005055Y00342954D02*
X005145D01*
X0051Y00338454D02*
Y00347454D01*
X005055Y00322939D02*
X005145D01*
X0051Y00318438D02*
Y00327439D01*
X005055Y00302949D02*
X005145D01*
X0051Y00298449D02*
Y00307449D01*
X005055Y00282934D02*
X005145D01*
X0051Y00278434D02*
Y00287434D01*
X001655Y00282934D02*
X001745D01*
X0017Y00278434D02*
Y00287434D01*
X001655Y00302949D02*
X001745D01*
X0017Y00298449D02*
Y00307449D01*
X001655Y00322939D02*
X001745D01*
X0017Y00318438D02*
Y00327439D01*
X001655Y00342954D02*
X001745D01*
X0017Y00338454D02*
Y00347454D01*
X001655Y00362944D02*
X001745D01*
X0017Y00358443D02*
Y00367444D01*
X001655Y00382933D02*
X001745D01*
X0017Y00378433D02*
Y00387434D01*
X001655Y00402949D02*
X001745D01*
X0017Y00398449D02*
Y00407449D01*
X001655Y00422938D02*
X001745D01*
X0017Y00418438D02*
Y00427439D01*
X001655Y00442954D02*
X001745D01*
X0017Y00438454D02*
Y00447454D01*
X001655Y00462943D02*
X001745D01*
X0017Y00458443D02*
Y00467444D01*
X001655Y00482933D02*
X001745D01*
X0017Y00478433D02*
Y00487433D01*
X001655Y00502948D02*
X001745D01*
X0017Y00498448D02*
Y00507449D01*
X010117Y00128D02*
X010267D01*
X010192Y001205D02*
Y001355D01*
X010625Y00128D02*
X010775D01*
X0107Y001205D02*
Y001355D01*
X0140222Y00087836D02*
X0143778D01*
X0142Y00070056D02*
Y00105616D01*
X01399426Y00114672D02*
X01409586D01*
X01404506Y00109592D02*
Y00119752D01*
X01430414Y00114672D02*
X01440574D01*
X01435494Y00109592D02*
Y00119752D01*
X01445908Y00087836D02*
X01456068D01*
X01450988Y00082756D02*
Y00092916D01*
X01430414Y00060999D02*
X01440574D01*
X01435494Y00055919D02*
Y00066079D01*
X01399426Y00060999D02*
X01409586D01*
X01404506Y00055919D02*
Y00066079D01*
X01383932Y00087836D02*
X01394092D01*
X01389012Y00082756D02*
Y00092916D01*
X0140222Y00611836D02*
X0143778D01*
X0142Y00594056D02*
Y00629616D01*
X01399426Y00638673D02*
X01409586D01*
X01404506Y00633593D02*
Y00643753D01*
X01430414Y00638673D02*
X01440574D01*
X01435494Y00633593D02*
Y00643753D01*
X01445908Y00611836D02*
X01456068D01*
X01450988Y00606756D02*
Y00616916D01*
X01430414Y00585D02*
X01440574D01*
X01435494Y0057992D02*
Y0059008D01*
X01399426Y00585D02*
X01409586D01*
X01404506Y0057992D02*
Y0059008D01*
X01383932Y00611836D02*
X01394092D01*
X01389012Y00606756D02*
Y00616916D01*
X006146Y00632D02*
X006286D01*
X006216Y00625D02*
Y00639D01*
X005638Y00632D02*
X005778D01*
X005708Y00625D02*
Y00639D01*
X00513Y00632D02*
X00527D01*
X0052Y00625D02*
Y00639D01*
X00340801Y006312D02*
X00355802D01*
X00348302Y006237D02*
Y006387D01*
X00391601Y006312D02*
X00406602D01*
X00399101Y006237D02*
Y006387D01*
X002688Y00632D02*
X002828D01*
X002758Y00625D02*
Y00639D01*
X00218Y00632D02*
X00232D01*
X00225Y00625D02*
Y00639D01*
X001672Y00632D02*
X001812D01*
X001742Y00625D02*
Y00639D01*
X0060222Y00255D02*
X0063778D01*
X0062Y0023722D02*
Y0027278D01*
X00599426Y00281836D02*
X00609586D01*
X00604506Y00276756D02*
Y00286916D01*
X00630414Y00281836D02*
X00640574D01*
X00635494Y00276756D02*
Y00286916D01*
X00645908Y00255D02*
X00656068D01*
X00650988Y0024992D02*
Y0026008D01*
X00630414Y00228164D02*
X00640574D01*
X00635494Y00223084D02*
Y00233244D01*
X00599426Y00228164D02*
X00609586D01*
X00604506Y00223084D02*
Y00233244D01*
X00583932Y00255D02*
X00594092D01*
X00589012Y0024992D02*
Y0026008D01*
X0060222Y00497954D02*
X0063778D01*
X0062Y00480174D02*
Y00515734D01*
X00599426Y0052479D02*
X00609586D01*
X00604506Y0051971D02*
Y0052987D01*
X00630414Y0052479D02*
X00640574D01*
X00635494Y0051971D02*
Y0052987D01*
X00645908Y00497954D02*
X00656068D01*
X00650988Y00492874D02*
Y00503034D01*
X00630414Y00471117D02*
X00640574D01*
X00635494Y00466037D02*
Y00476197D01*
X00599426Y00471117D02*
X00609586D01*
X00604506Y00466037D02*
Y00476197D01*
X00583932Y00497954D02*
X00594092D01*
X00589012Y00492874D02*
Y00503034D01*
X00051232Y00087836D02*
X00086792D01*
X00069012Y00070056D02*
Y00105616D01*
X00048438Y00114672D02*
X00058598D01*
X00053518Y00109592D02*
Y00119752D01*
X00079426Y00114672D02*
X00089586D01*
X00084506Y00109592D02*
Y00119752D01*
X0009492Y00087836D02*
X0010508D01*
X001Y00082756D02*
Y00092916D01*
X00079426Y00060999D02*
X00089586D01*
X00084506Y00055919D02*
Y00066079D01*
X00048438Y00060999D02*
X00058598D01*
X00053518Y00055919D02*
Y00066079D01*
X00032944Y00087836D02*
X00043104D01*
X00038024Y00082756D02*
Y00092916D01*
X00051232Y00611836D02*
X00086792D01*
X00069012Y00594056D02*
Y00629616D01*
X00048438Y00638673D02*
X00058598D01*
X00053518Y00633593D02*
Y00643753D01*
X00079426Y00638673D02*
X00089586D01*
X00084506Y00633593D02*
Y00643753D01*
X0009492Y00611836D02*
X0010508D01*
X001Y00606756D02*
Y00616916D01*
X00079426Y00585D02*
X00089586D01*
X00084506Y0057992D02*
Y0059008D01*
X00048438Y00585D02*
X00058598D01*
X00053518Y0057992D02*
Y0059008D01*
X00032944Y00611836D02*
X00043104D01*
X00038024Y00606756D02*
Y00616916D01*
X0131819Y00264D02*
X0132581D01*
X01322Y0026019D02*
Y0026781D01*
X0131819Y00239D02*
X0132581D01*
X01322Y0023519D02*
Y0024281D01*
X0131819Y00289D02*
X0132581D01*
X01322Y0028519D02*
Y0029281D01*
X0084039Y00216641D02*
X0085539D01*
X0084789Y00209141D02*
Y00224141D01*
X0084039Y00267441D02*
X0085539D01*
X0084789Y00259941D02*
Y00274941D01*
X007756Y00491942D02*
X007936D01*
X007846Y00482942D02*
Y00500942D01*
X007756Y00337042D02*
X007936D01*
X007846Y00328042D02*
Y00346042D01*
X008586Y00480743D02*
X008696D01*
X008641Y00475243D02*
Y00486243D01*
X008586Y00455343D02*
X008696D01*
X008641Y00449843D02*
Y00460843D01*
X008586Y00373641D02*
X008696D01*
X008641Y00368141D02*
Y00379141D01*
X008586Y00348241D02*
X008696D01*
X008641Y00342741D02*
Y00353741D01*
X007212Y00458942D02*
X007312D01*
X007262Y00453942D02*
Y00463942D01*
X007466Y00446242D02*
X007566D01*
X007516Y00441242D02*
Y00451242D01*
X007212Y00433542D02*
X007312D01*
X007262Y00428542D02*
Y00438542D01*
X007466Y00420842D02*
X007566D01*
X007516Y00415842D02*
Y00425842D01*
X007212Y00408142D02*
X007312D01*
X007262Y00403142D02*
Y00413142D01*
X007466Y00395442D02*
X007566D01*
X007516Y00390442D02*
Y00400442D01*
X007212Y00382742D02*
X007312D01*
X007262Y00377742D02*
Y00387742D01*
X007466Y00370042D02*
X007566D01*
X007516Y00365042D02*
Y00375042D01*
X007986Y00471642D02*
X008316D01*
X008151Y00455142D02*
Y00488142D01*
X007986Y00357342D02*
X008316D01*
X008151Y00340842D02*
Y00373842D01*
X006918Y000806D02*
X007058D01*
X006988Y000736D02*
Y000876D01*
X00641Y000806D02*
X00655D01*
X00648Y000736D02*
Y000876D01*
X005902Y000806D02*
X006042D01*
X005972Y000736D02*
Y000876D01*
X00174141Y000798D02*
X00189141D01*
X00181641Y000723D02*
Y000873D01*
X00224941Y000798D02*
X00239941D01*
X00232441Y000723D02*
Y000873D01*
X00303141Y000798D02*
X00318141D01*
X00310641Y000723D02*
Y000873D01*
X00353941Y000798D02*
X00368941D01*
X00361441Y000723D02*
Y000873D01*
X00432141Y000798D02*
X00447141D01*
X00439641Y000723D02*
Y000873D01*
X00482941Y000798D02*
X00497941D01*
X00490441Y000723D02*
Y000873D01*
X00779476Y00124D02*
X00782524D01*
X00781Y00122476D02*
Y00125524D01*
X00994147Y00600483D02*
X00997196D01*
X00995671Y00598959D02*
Y00602007D01*
X01023476Y00653D02*
X01026524D01*
X01025Y00651476D02*
Y00654524D01*
X01473476Y00235D02*
X01476524D01*
X01475Y00233476D02*
Y00236524D01*
X01453476Y00235D02*
X01456524D01*
X01455Y00233476D02*
Y00236524D01*
X01433476Y00235D02*
X01436524D01*
X01435Y00233476D02*
Y00236524D01*
X01473476Y00262D02*
X01476524D01*
X01475Y00260476D02*
Y00263524D01*
X01433476Y00262D02*
X01436524D01*
X01435Y00260476D02*
Y00263524D01*
X01333726Y00165D02*
X01336774D01*
X0133525Y00163476D02*
Y00166524D01*
X01353726Y00165D02*
X01356774D01*
X0135525Y00163476D02*
Y00166524D01*
X01373726Y00165D02*
X01376774D01*
X0137525Y00163476D02*
Y00166524D01*
X01268476Y00165D02*
X01271524D01*
X0127Y00163476D02*
Y00166524D01*
X01288476Y00165D02*
X01291524D01*
X0129Y00163476D02*
Y00166524D01*
X01308476Y00165D02*
X01311524D01*
X0131Y00163476D02*
Y00166524D01*
X01333476Y00185D02*
X01336524D01*
X01335Y00183476D02*
Y00186524D01*
X01353476Y00185D02*
X01356524D01*
X01355Y00183476D02*
Y00186524D01*
X01373476Y00185D02*
X01376524D01*
X01375Y00183476D02*
Y00186524D01*
X01268476Y00185D02*
X01271524D01*
X0127Y00183476D02*
Y00186524D01*
X01288476Y00185D02*
X01291524D01*
X0129Y00183476D02*
Y00186524D01*
X01308476Y00185D02*
X01311524D01*
X0131Y00183476D02*
Y00186524D01*
X01318476Y00574D02*
X01321524D01*
X0132Y00572476D02*
Y00575524D01*
X01318476Y005909D02*
X01321524D01*
X0132Y00589376D02*
Y00592424D01*
X01278476Y00574D02*
X01281524D01*
X0128Y00572476D02*
Y00575524D01*
X01298476Y00574D02*
X01301524D01*
X013Y00572476D02*
Y00575524D01*
X01278476Y005909D02*
X01281524D01*
X0128Y00589376D02*
Y00592424D01*
X01298476Y005909D02*
X01301524D01*
X013Y00589376D02*
Y00592424D01*
X01338476Y0043D02*
X01341524D01*
X0134Y00428476D02*
Y00431524D01*
X01313476Y0043D02*
X01316524D01*
X01315Y00428476D02*
Y00431524D01*
X01313476Y0045D02*
X01316524D01*
X01315Y00448476D02*
Y00451524D01*
X01313476Y0047D02*
X01316524D01*
X01315Y00468476D02*
Y00471524D01*
X01293476Y0043D02*
X01296524D01*
X01295Y00428476D02*
Y00431524D01*
X01293476Y0045D02*
X01296524D01*
X01295Y00448476D02*
Y00451524D01*
X01293476Y0047D02*
X01296524D01*
X01295Y00468476D02*
Y00471524D01*
X01178476Y00322939D02*
X01181524D01*
X0118Y00321415D02*
Y00324463D01*
X01198476Y00322939D02*
X01201524D01*
X012Y00321415D02*
Y00324463D01*
X01158476Y00322939D02*
X01161524D01*
X0116Y00321415D02*
Y00324463D01*
X01198476Y003D02*
X01201524D01*
X012Y00298476D02*
Y00301524D01*
X01178476Y003D02*
X01181524D01*
X0118Y00298476D02*
Y00301524D01*
X01158476Y003D02*
X01161524D01*
X0116Y00298476D02*
Y00301524D01*
X00908476Y00125D02*
X00911524D01*
X0091Y00123476D02*
Y00126524D01*
X00908476Y0011D02*
X00911524D01*
X0091Y00108476D02*
Y00111524D01*
X00908476Y000798D02*
X00911524D01*
X0091Y00078276D02*
Y00081324D01*
X00908476Y00065D02*
X00911524D01*
X0091Y00063476D02*
Y00066524D01*
X00888476Y00065D02*
X00891524D01*
X0089Y00063476D02*
Y00066524D01*
X00888476Y000798D02*
X00891524D01*
X0089Y00078276D02*
Y00081324D01*
X00888476Y00095D02*
X00891524D01*
X0089Y00093476D02*
Y00096524D01*
X00888476Y0011D02*
X00891524D01*
X0089Y00108476D02*
Y00111524D01*
X00870366Y00126D02*
X00873414D01*
X0087189Y00124476D02*
Y00127524D01*
M02*
