M48
;Layer_Color=9474304
;FILE_FORMAT=4:4
METRIC,TZ
;TYPE=PLATED
T1F00S00C0.3048
T2F00S00C0.7620
T3F00S00C0.9000
T4F00S00C1.0000
T5F00S00C1.0160
T6F00S00C1.1000
T7F00S00C1.4000
T8F00S00C1.5000
T9F00S00C1.8000
T10F00S00C3.5560
;TYPE=NON_PLATED
T11F00S00C3.3000
%
T01
X890000Y65000
Y79800
Y95000
Y110000
Y125000
X910000
Y110000
Y79800
Y65000
X1335250Y165000
X1355250
X1375250
X1375000Y185000
X1355000
X1335000
X1435000Y235000
X1455000
X1475000
Y262000
X1435000
X1340000Y430000
Y450000
Y470000
X1315000
Y450000
Y430000
X1295000
Y450000
Y470000
X1200000Y322939
X1180000
X1160000
Y300000
X1180000
X1200000
X1270000Y185000
X1290000
Y165000
X1270000
X1310000
Y185000
X1320000Y574000
Y590900
X1300000
Y574000
X1280000
Y590900
T02
X1322000Y239000
Y264000
Y289000
T03
X170000Y282934
Y302949
Y322939
Y342954
Y362944
Y382933
Y402949
Y422938
Y442954
Y462943
Y482933
Y502948
X510000
Y482933
Y462943
Y442954
X510000Y422938
Y402949
X510000Y382933
Y362944
Y342954
Y322939
Y302949
Y282934
T04
X726200Y382742
X726200Y408142
Y433542
Y458942
X751600Y446242
X751600Y420842
X751600Y395442
X751600Y370042
T05
X53518Y60999
X84506
X100000Y87836
X84506Y114672
X53518
X38024Y87836
X1389012
X1404506Y114672
X1435494
X1450988Y87836
X1435494Y60999
X1404506
X635494Y228164
X604506
X589012Y255000
X604506Y281836
X635494
X650988Y255000
X635494Y471117
X604506
X589012Y497954
X604506Y524790
X635494
X650988Y497954
X84506Y585000
X53518
X38024Y611836
X53518Y638673
X84506
X100000Y611836
X1389012
X1404506Y638673
X1435494
X1450988Y611836
X1435494Y585000
X1404506
T06
X864100Y348241
Y373641
Y455343
Y480743
T07
X597200Y80600
X648000
X698800
X520000Y632000
X275800
X225000
X174200
X570800
X621600
T08
X181641Y79800
X232441
X310641
X361441
X439641Y79800
X490441Y79800
X1019200Y128000
X1070000
X847890Y216641
Y267441
X399101Y631200
X348302Y631200
T09
X784600Y337042
Y491942
T10
X69012Y87836
X1420000
X620000Y255000
Y497954
X69012Y611836
X1420000
T11
X815100Y357342
Y471642
M30
