G04*
G04 #@! TF.GenerationSoftware,Altium Limited,Altium Designer,19.0.4 (130)*
G04*
G04 Layer_Color=16711935*
%FSTAX44Y44*%
%MOMM*%
G71*
G01*
G75*
%ADD10C,0.2540*%
%ADD37C,1.7272*%
%ADD38R,1.7272X1.7272*%
%ADD39C,2.4032*%
%ADD40C,9.0932*%
%ADD41C,1.0922*%
%ADD42C,2.7032*%
%ADD43C,2.0032*%
%ADD44C,1.8032*%
%ADD45R,1.8032X1.8032*%
%ADD46C,3.5032*%
%ADD63C,1.2032*%
G36*
X0071246Y002827D02*
Y002573D01*
X0070738Y0025857D01*
X0070103Y0026492D01*
X0069976Y0027254D01*
X007023Y0027762D01*
X0070484Y0028016D01*
X0070992Y002827D01*
X0071246D01*
D02*
G37*
G36*
X0071754D02*
Y002573D01*
X0072262Y0025857D01*
X0072897Y0026492D01*
X0073024Y0027254D01*
X007277Y0027762D01*
X0072516Y0028016D01*
X0072008Y002827D01*
X0071754D01*
D02*
G37*
D10*
X0071246D02*
G03*
X0071246Y002573I0J-000127D01*
G01*
X0071754D02*
G03*
X0071754Y002827I0J000127D01*
G01*
X0071246Y002573D02*
Y002827D01*
X0071754Y002573D02*
Y002827D01*
X0035Y00182934D02*
Y00282934D01*
X002D02*
X0035D01*
X002Y00182934D02*
Y00282934D01*
Y00182934D02*
X0035D01*
X009Y0018D02*
Y0053D01*
X011D01*
X009Y0018D02*
X011D01*
X011D02*
Y0053D01*
X002Y00182939D02*
Y00282939D01*
Y00182939D02*
X0035D01*
Y00282944D01*
X003D02*
X0035D01*
X002D02*
X0035D01*
X0Y0D02*
Y007D01*
X015D01*
Y0D02*
Y007D01*
X0Y0D02*
X015D01*
D37*
X0051Y00502948D02*
D03*
Y00482933D02*
D03*
Y00462943D02*
D03*
Y00442954D02*
D03*
X0051Y00422938D02*
D03*
Y00402949D02*
D03*
X0051Y00382933D02*
D03*
Y00362944D02*
D03*
Y00342954D02*
D03*
Y00322939D02*
D03*
Y00302949D02*
D03*
X0017D02*
D03*
Y00322939D02*
D03*
Y00342954D02*
D03*
Y00362944D02*
D03*
Y00382933D02*
D03*
Y00402949D02*
D03*
Y00422938D02*
D03*
Y00442954D02*
D03*
Y00462943D02*
D03*
Y00482933D02*
D03*
Y00502948D02*
D03*
X01322Y00264D02*
D03*
Y00239D02*
D03*
Y00289D02*
D03*
D38*
X0051Y00282934D02*
D03*
X0017D02*
D03*
D39*
X010192Y00128D02*
D03*
X0107D02*
D03*
X006216Y00632D02*
D03*
X005708D02*
D03*
X0052D02*
D03*
X00348302Y006312D02*
D03*
X00399101Y006312D02*
D03*
X002758Y00632D02*
D03*
X00225D02*
D03*
X001742D02*
D03*
X0084789Y00216641D02*
D03*
Y00267441D02*
D03*
X006988Y000806D02*
D03*
X00648D02*
D03*
X005972D02*
D03*
X00181641Y000798D02*
D03*
X00232441D02*
D03*
X00310641D02*
D03*
X00361441D02*
D03*
X00439641Y000798D02*
D03*
X00490441Y000798D02*
D03*
D40*
X0142Y00087836D02*
D03*
Y00611836D02*
D03*
X0062Y00255D02*
D03*
Y00497954D02*
D03*
X00069012Y00087836D02*
D03*
Y00611836D02*
D03*
D41*
X01404506Y00114672D02*
D03*
X01435494D02*
D03*
X01450988Y00087836D02*
D03*
X01435494Y00060999D02*
D03*
X01404506D02*
D03*
X01389012Y00087836D02*
D03*
X01404506Y00638673D02*
D03*
X01435494D02*
D03*
X01450988Y00611836D02*
D03*
X01435494Y00585D02*
D03*
X01404506D02*
D03*
X01389012Y00611836D02*
D03*
X00604506Y00281836D02*
D03*
X00635494D02*
D03*
X00650988Y00255D02*
D03*
X00635494Y00228164D02*
D03*
X00604506D02*
D03*
X00589012Y00255D02*
D03*
X00604506Y0052479D02*
D03*
X00635494D02*
D03*
X00650988Y00497954D02*
D03*
X00635494Y00471117D02*
D03*
X00604506D02*
D03*
X00589012Y00497954D02*
D03*
X00053518Y00114672D02*
D03*
X00084506D02*
D03*
X001Y00087836D02*
D03*
X00084506Y00060999D02*
D03*
X00053518D02*
D03*
X00038024Y00087836D02*
D03*
X00053518Y00638673D02*
D03*
X00084506D02*
D03*
X001Y00611836D02*
D03*
X00084506Y00585D02*
D03*
X00053518D02*
D03*
X00038024Y00611836D02*
D03*
D42*
X007846Y00491942D02*
D03*
Y00337042D02*
D03*
D43*
X008641Y00480743D02*
D03*
Y00455343D02*
D03*
Y00373641D02*
D03*
Y00348241D02*
D03*
D44*
X007262Y00458942D02*
D03*
X007516Y00446242D02*
D03*
X007262Y00433542D02*
D03*
X007516Y00420842D02*
D03*
X007262Y00408142D02*
D03*
X007516Y00395442D02*
D03*
X007262Y00382742D02*
D03*
D45*
X007516Y00370042D02*
D03*
D46*
X008151Y00471642D02*
D03*
Y00357342D02*
D03*
D63*
X0070611Y0027D02*
D03*
X0072389D02*
D03*
M02*
